<svg version="1.0" xmlns="http://www.w3.org/2000/svg" width="682.667" height="682.667" viewBox="0 0 512 512"><path d="M275.3 24.4c-6.7 3-6.8 3.4-6.8 39.2 0 35.2.1 36.1 5.9 38.7 1.7.8 7.7 1.8 13.3 2.1 38 2.5 71.6 17.4 97.8 43.3C415.2 177 431 214.7 431 256s-15.8 79-45.5 108.3c-37.2 36.8-90.3 51.5-142 39.2-42.9-10.1-80.4-40.2-100.5-80.3-6.4-13-14-37.7-14-45.8 0-1.2 3.4-1.4 19.6-1.4 22.4 0 25.1-.7 28-6.8 1.5-3.2 1.5-4 .3-7.4-.9-2.5-14.5-18.5-40.3-47.4-21.4-23.9-40.2-44.6-41.8-45.9-3.7-3.2-8.5-3.2-12.7-.3-3.4 2.5-77.1 86.3-80.2 91.3-2.3 3.7-2.4 6.6-.3 10.6 2.6 5.1 6.1 5.9 27.2 5.9h18.9l.7 7.2c.4 4 1.9 12.9 3.2 19.8 14.4 70.8 62.3 131.9 127.9 163.1 88.5 42 193.8 24.2 263-44.6 19.6-19.5 33.7-39 45.5-62.9 10.8-22 17.8-44.5 21.7-69.6 2.4-16 2.4-50 0-66C494.5 124.6 421.3 47 326 28.1c-21.4-4.2-45.5-6-50.7-3.7zM319 49c87.7 17.7 153.7 85.8 168.5 174 2.3 13.5 3 39.1 1.6 53.3-7 68-44 125.6-103.8 161.6-34.8 21-80.4 31.6-121.1 28.3-61.2-5.1-113.8-33.1-151.3-80.7C88 354 72.7 314.3 69.1 271.9c-.5-5.8-1.5-11.6-2.2-12.7-2.6-4.1-6.8-5.2-19.8-5.2H35l26-29.8c14.3-16.3 26.5-29.8 27-30 .4-.2 12.8 13.1 27.5 29.5l26.7 29.8-15.2.5-15.2.5-3 3.4-3.1 3.4.7 10c4.5 65 50.2 124.8 112.9 147.8 19.9 7.3 38.2 10.4 60.7 10.2 25.2-.1 45.3-4.2 68-13.9 42.8-18.3 78.3-55.6 94-98.6 6.7-18.3 9.8-34.2 10.7-54.3 2-46.6-15.2-92-47.6-125.7-29.3-30.6-64.1-48.3-104.6-53.1l-10-1.2-.3-18.4-.2-18.4 9.2.6c5.1.4 14 1.6 19.8 2.7z"/><path d="M272.5 118.3c-5.1 2.3-6 4.2-6.5 14.5l-.5 9.5-6.5 2.2c-9.3 3.1-14.7 5.9-21.2 11-18.2 14.3-27.2 39-22.3 61.1 2.9 13.2 7.6 21.6 17.4 31.5 9 9 15.8 13 27.5 16.4l5.6 1.6-.2 41.2-.3 41.2-15.7.5c-14.1.4-16 .7-17.8 2.5-4.6 4.7-4.2 12.8.9 16.4 2.5 1.8 4.6 2.1 17.7 2.3l14.9.3.5 9.2c.6 10.3 1.8 12.6 8 14.4 2.9.9 4.3.8 6.5-.2 5.3-2.6 6.8-6 7.3-15.8l.4-8.9 4.7-1.2c12.5-3.1 25.9-12.4 34.3-23.7 13.4-18.2 15.6-44.2 5.3-64.3-9-17.7-21.3-27.3-43.2-33.6-1-.3-1.3-9.5-1.3-41.9V163h26.8l3.1-3.1c2.5-2.5 3.1-3.9 3.1-7.4 0-3.5-.6-4.9-3.1-7.4l-3.1-3.1H288v-6.3c0-3.4-.5-7.8-1-9.8-1.9-6.8-8.5-10.3-14.5-7.6zm-6.5 85.8v39.1l-2.7-.7c-4.2-1-11.1-5.3-15.3-9.5-16.7-16.7-15.8-43.3 2-59.4 3.7-3.3 13-8.6 15.3-8.6.4 0 .7 17.6.7 39.1zm29.5 67.7c8.8 4.3 15.7 12.5 19.5 22.9 1.9 5.2 2.2 7.7 1.8 15.1-.3 7.5-.9 10-3.6 15.3-4.8 9.8-12.8 17.1-22.7 20.9l-2.5 1v-78.1l2.3.7c1.2.3 3.6 1.3 5.2 2.2z"/></svg>