<svg version="1.0" xmlns="http://www.w3.org/2000/svg" width="682.667" height="456" viewBox="0 0 512 342"><g fill="#fff"><path d="M34 1.4C17.5 5 4.4 18 1 34.3.3 37.9 0 80.4.2 174l.3 134.5 2.4 5.8c4.4 11.1 14.3 20.7 25.8 25l5.8 2.2 217.5.3c151.7.2 219.4-.1 223.8-.8 12.5-2.1 23.6-9.6 29.9-20.1 6.7-11.1 6.4-3.4 6.1-152.5l-.3-134.9-2.4-5.8c-4.4-11.1-14.3-20.7-25.8-25L477.5.5l-219-.2C91.2.2 38.2.4 34 1.4zm447.2 24.1c2.3 1.7 5.4 5.1 6.8 7.5l2.5 4.5v267L488 309c-1.4 2.4-4.5 5.8-6.8 7.5l-4.4 3-218.6.3c-153.2.2-219.8 0-222.4-.8-4.9-1.4-9.4-5.3-12.1-10.4l-2.2-4.1v-267l2.2-4c2.6-4.9 5.7-7.9 10.3-9.9 3.1-1.4 28.6-1.5 223.2-1.3l219.6.2 4.4 3z"/><path d="M69.3 87.2c-5.5 2.7-6.7 12.2-2 16.5 3.8 3.5 187.1 121.7 188.7 121.7 1.6 0 184.9-118.2 188.7-121.7 3.2-2.9 4-8.2 1.8-12.2-1.9-3.7-5.2-5.5-9.7-5.5-3.3 0-4.2.6-117 73.6L256 200.9l-64.2-41.6C75.4 84 78.6 86 74.9 86.1c-1.9 0-4.4.5-5.6 1.1zM156.3 193c-3.4 1.4-97.9 64.7-100.2 67.1-2.9 3.2-3.5 7.2-1.6 11.3 2 4.1 7.4 7.1 11.3 6.1 2.9-.7 101-66 102.9-68.4 3.7-4.9 1.6-12.8-4.2-15.5-3.7-1.8-5-1.9-8.2-.6zM347.3 193.6c-5.6 2.8-7.7 10.7-4 15.5 1.9 2.4 100 67.7 102.9 68.4 3.9 1 9.3-2 11.3-6.1 2-4.2 1.3-8.3-2-11.6-4.3-4.3-98.9-66.8-102-67.3-1.8-.3-4.3.1-6.2 1.1z"/></g></svg>