<svg version="1.0" xmlns="http://www.w3.org/2000/svg" width="314.667" height="264" viewBox="0 0 236 198"><path d="M99.2 4c-1.8 1.1-4.1 3.4-5.2 5.2-1.9 3.1-2 5.1-2 34.4 0 30.6 0 31.2 2.3 34.4 2.7 4 8 7 12.4 7h3.2l.3 12.1c.4 17.7.5 17.7 17.1 1.1L140.5 85h41.4c39.4 0 41.7-.1 45.6-2 2.6-1.3 4.9-3.4 6.3-5.9 2.1-3.7 2.2-4.9 2.2-33.7 0-32.9-.2-34.4-6.3-38.8-2.5-1.9-4.5-2.1-17.7-2.4-14-.3-14.9-.2-15.9 1.7-.9 1.5-.7 2.3.5 3.5 1.2 1.3 4.1 1.6 14.5 1.6 12.5 0 13.1.1 15.4 2.5l2.5 2.4v29c0 15.9-.3 29.7-.6 30.6-1.7 4.3-4.1 4.5-48.5 4.5h-42.2l-10.3 10.2L117 98.4v-9c0-5.7-.4-9.4-1.2-10.2-.7-.7-3.6-1.2-6.5-1.2-4.4 0-5.9-.5-7.8-2.5L99 73.1V13.3l2.3-2.1C103.6 9 103.9 9 145.7 9c37 0 42.3-.2 43.7-1.6.9-.8 1.6-1.9 1.6-2.3 0-2.9-3.1-3.1-45.5-3.1-41.1 0-43.1.1-46.3 2z"/><path d="M18.9 24.7C11.8 32 8.5 36.2 6.3 41-6.3 67.7.7 101.8 25.8 136c7.4 10 26.8 29.1 36.8 36.3 22.5 16 44.1 23.8 65.6 23.8 17.6 0 28.7-4.5 42.2-16.9 9.3-8.5 12.1-12.9 11.1-17-.8-3.5-35.9-38.9-40.3-40.9-1.9-.7-4.3-1.1-5.5-.7-1.2.3-7.5 5.8-14 12.2l-11.8 11.7-6.4-3.4c-3.5-1.9-9.3-5.6-12.9-8.3-7.1-5.3-10.6-5.8-10.6-1.4 0 1.7 1.7 3.6 6 6.7 7.9 5.8 22 13.9 24.2 13.9.9 0 4.6-2.7 8-6l6.3-6 18.8 18.8 18.8 18.7-2.8 2.3c-15 12.2-43.6 12.4-69.3.5-33.6-15.6-64.8-49-77.4-82.6-7.8-20.7-7-42 1.9-57.3 1.4-2.4 3-4.6 3.6-5 1-.6 37.9 35.1 37.9 36.7 0 .4-2.7 3.5-6 6.9-3.3 3.4-6 6.7-6 7.2 0 1.5 9.7 18.1 13.9 23.7 7 9.4 14.1 16.2 16.5 15.9 3.9-.6 2.9-3.6-3.3-10.9-6.3-7.3-11.7-14.9-16.6-23.2l-2.8-4.8 12.2-12.3c17-17.3 17.6-14.6-7.7-39.8C31.3 9.9 33.1 10.4 18.9 24.7zm32.3 15C61 49.5 69 57.9 69 58.5c-.1.5-1.6 2.8-3.5 5l-3.5 4-19.1-19.2-19.2-19.1 3.4-3.6c1.8-2 4-3.6 4.9-3.6.8 0 9.5 8 19.2 17.7zm105.7 105.7c20.1 20.1 19.5 19 13.4 24.8l-2.9 2.8-18.9-19-18.9-19 3.9-4c2.1-2.2 4.2-4 4.5-4 .3 0 8.8 8.3 18.9 18.4zM174.4 40.4c-4.8 9.6-8.3 17.9-7.9 18.5.3.6 1.4 1.1 2.4 1.1 1.2 0 4-4.7 10-17.4 4.6-9.6 8-17.9 7.6-18.5-1.9-3.1-4-.2-12.1 16.3zM118.8 26.6c-4.8 2.6-5.2 9.7-.6 10.2 2 .2 2.8-.2 3.3-2 1.3-3.9 3.5-4.7 5.9-2.2 2.2 2.1.9 4.3-5.9 9.6-5.9 4.5-7.8 7.9-7.3 12.4l.3 2.9 10.1.3c8.4.2 10.3 0 10.7-1.3 1.4-3.4-.3-4.5-6.9-4.5-3.5 0-6.4-.4-6.4-1 0-.5 2.4-2.8 5.4-5 4.8-3.7 8.6-8.9 8.6-11.9 0-.5-.5-2.2-1.2-3.6-2.3-5.1-10.3-7-16-3.9zM144.2 36.7c-3.3 6.5-5.7 12.4-5.5 13 .3.9 2.6 1.3 6.4 1.3 5.5 0 5.9.1 5.9 2.4 0 3 2.2 4.9 5.2 4.4 1.8-.2 2.4-1 2.6-3.6.2-1.9.9-3.2 1.7-3.2 2.4 0 3-4.2.9-6-1.1-.9-2.4-2.5-3-3.5-1.4-2.6-5.4-2.6-6.8 0-1.2 2.1-2.8 3.6-3.4 3-.2-.1 1.5-4 3.8-8.5s3.9-8.8 3.6-9.6c-.3-.8-1.7-1.4-3.1-1.4-2.2 0-3.2 1.4-8.3 11.7zM191.4 26.4c-.3.8-.4 3.1-.2 5.2.3 3.6.5 3.9 3.3 3.9 2.3 0 3.1-.5 3.3-2.3.3-1.8 1-2.2 4.3-2.2 5.4 0 5.2 1.7-1.7 13.4-6.1 10.5-6.5 13.1-1.9 13.1 2.7 0 3.4-.8 8.2-10 6.2-11.7 7.8-16.4 6.9-19.9-.6-2.6-.7-2.6-11.2-2.6-8 0-10.6.3-11 1.4z"/></svg>