<svg version="1.0" xmlns="http://www.w3.org/2000/svg" width="682.667" height="482.667" viewBox="0 0 512 362"><path d="M409 3.1c-14.4 2.8-26.6 14.6-30.4 29.4-1.9 6.9-2.1 24.2-.5 27.8 2.5 5.5 11.2 6.7 15.4 2.1 2.3-2.5 2.5-3.5 2.5-11.8 0-5 .5-10.7 1-12.7 3.2-11.6 14.4-18.5 25.8-15.9 6.8 1.5 14.4 8.4 16.1 14.5.7 2.6 1.1 18.9 1.1 46.7V126h-6.8l-.3-8.5c-.4-7.5-.7-8.7-2.9-10.9-3.9-3.8-9.8-3.9-13.5-.1-2.3 2.2-2.5 3.2-2.5 10.9v8.6l-195.7.2-195.8.3-5.5 2.6C5.7 134.4 0 143.4 0 156c0 5.4.6 8.8 2.1 12 4.3 9.5 14.8 17 23.9 17h4.5l2.8 14.5C39 229 50.2 262 61.1 281.7c8.2 14.6 20.9 30.8 30.1 38.3l5.5 4.5.5 11.1c.3 8.7.8 11.8 2.4 14.5 2.9 5 9 8.8 15.1 9.5 7 .9 11.3-1.4 23.3-12.1l9.4-8.5h217.2l9.4 8.6c5.2 4.7 11.5 9.5 13.9 10.6 6 2.8 12.8 2.1 18.4-1.8 6.7-4.7 8-8 8.5-20.8l.5-11.1 5.5-4.5c9.2-7.5 21.9-23.7 30.1-38.3 10.9-19.7 22.1-52.7 27.8-82.2l2.8-14.5h4.5c9.1-.1 19.1-7.1 23.6-16.5 3.3-7 3.3-17.9 0-25-3.9-8.3-11.6-14.5-20.3-16.3l-3.8-.8-.3-8.6c-.2-7.5-.6-8.9-2.7-11.2-4.2-4.6-12.9-3.4-15.4 2.1-.6 1.3-1.1 5.7-1.1 9.8v7.5h-6.9l-.3-46.8-.3-46.7-3.2-6.8C447 8.2 428.7-.8 409 3.1zm81.1 146c4.1 4.4 4 9.6-.2 13.8-2.8 2.9-3.5 3.1-10.3 3.1-12.6 0-15.7 2.4-17 13-4.8 37.8-20.6 83.2-37.4 106.9-4.5 6.4-16.5 19-25 26.2l-4.2 3.6v12.1c0 6.7-.3 12.2-.6 12.2-.4 0-5-4-10.3-8.9-5.3-4.8-10.6-9.3-11.8-10-3.1-1.6-231.5-1.6-234.6 0-1.2.7-6.5 5.2-11.8 10-5.3 4.9-9.9 8.9-10.3 8.9-.3 0-.6-5.5-.6-12.2v-12.1l-4.2-3.6c-8.5-7.2-20.5-19.8-25-26.2C70 262.2 54.2 216.8 49.4 179c-1.3-10.6-4.4-13-17-13-6.8 0-7.5-.2-10.3-3.1-4.2-4.2-4.3-9.4-.2-13.8l2.9-3.1h462.4l2.9 3.1z"/></svg>