<svg width="26" height="22" viewBox="0 0 26 22" fill="none" xmlns="http://www.w3.org/2000/svg">
<path d="M12.9593 8.22892C13.198 7.10892 14.5378 1.99992 18.4511 1.99992C20.7164 1.99992 23.1633 3.55092 23.1633 7.00292C23.1633 10.9099 19.4623 15.4729 12.9593 19.6319C6.45619 15.4729 2.75517 10.9099 2.75517 7.00292C2.75517 3.51892 5.17252 1.99792 7.42558 1.99792C11.4286 1.99792 12.6756 7.12392 12.9593 8.22892ZM0.714355 7.00292C0.714355 11.0709 3.8368 16.4839 12.9593 21.9999C22.0817 16.4839 25.2042 11.0709 25.2042 7.00292C25.2042 -0.959077 15.3593 -2.02508 12.9593 3.26592C10.5735 -1.99608 0.714355 -1.00408 0.714355 7.00292Z"/>
</svg>
