<svg version="1.0" xmlns="http://www.w3.org/2000/svg" width="588" height="613.333" viewBox="0 0 441 460"><path d="M85.7 1C64.1 3 40.9 7.2 19.6 13.1.3 18.4-.6 19.6 2.8 36.1 9 66.2 22.7 100.7 37.6 123c19.5 29.3 42 46.5 71 54.2 14.3 3.7 47 3 61.1-1.3 4.3-1.4 7.3-5.3 7.3-9.6 0-4.5-1.4-6.9-5.2-8.9-2.8-1.5-3.8-1.5-12.2.2-13.9 2.8-38.5 2.6-48.9-.4-29.2-8.4-50.9-30-69.7-69.5-9.8-20.5-19.8-53-16.8-54.8 2.1-1.3 29.3-7.6 40.3-9.3 26.4-4.1 55.6-4.5 72-1.1 33.9 7.1 56.8 29.7 63.1 62.3 2.3 12.2 1.7 27.9-1.6 40.1l-1.1 4.2-13.2-12.8C159.4 92.8 128 70.6 94.3 53c-10.5-5.5-14.5-6.3-18.7-4.1-4.4 2.4-6 9.6-3.1 13.8.8 1.2 5.9 4.5 11.3 7.4 63.6 34 106.2 72.8 121.3 110.4 4.7 11.7 5.9 20.3 5.9 41.1V240h-66c-49 0-66.6.3-68.5 1.2-5.3 2.4-5.5 4-5.5 38.8s.2 36.4 5.5 38.8c1.4.7 5.7 1.2 9.5 1.2h6.8l.8 3.3c.3 1.7 6.9 32 14.4 67.2 13.6 63.1 13.8 64 16.9 66.7l3.1 2.8h186l3.1-2.8c3.1-2.7 3.3-3.6 16.9-66.7 7.5-35.2 14.1-65.5 14.4-67.3l.8-3.2h6.9c8 0 11.9-1.6 13.7-5.5.9-1.8 1.2-11.9 1.2-34.6 0-34.7-.2-36.3-5.5-38.7-1.9-.9-19.6-1.2-68.7-1.2h-66.1l.5-9.3c.8-15.2 6.2-27.6 17.8-41.5 19.4-23.2 59.8-47.1 105.5-62.3 11.8-3.9 14.5-6.1 14.5-11.9 0-3.3-.6-4.8-2.9-7.1-4-4-7.3-3.8-22.7 1.5-25.4 8.7-50.8 20.8-69.6 33.1l-9.7 6.4.5-3.2c5.9-34.2 23.3-55.6 51.1-62.8 21.3-5.5 66.4-2.3 94.9 6.7l8.5 2.7-.7 3.1c-1.4 6.6-7.7 23.3-12.1 32-13.6 27.2-29.7 44.7-49.8 54.2-13.5 6.3-20.5 7.8-37 7.9-15.3 0-23.3-1.2-36.1-5.5-4.6-1.6-9.3-2.6-10.8-2.3-3.8.8-7.6 5.7-7.6 10 0 5.4 3.9 8.5 15.1 12.1 27.1 8.7 56.9 7.9 80.2-2 36.6-15.6 65.3-54.3 78.3-105.5 2.9-11.2 2.9-11.3 1-14.7-2-3.7-5.4-5.5-17.6-9.5-29.5-9.5-74.7-14.4-98.7-10.7C280 68 252 97.4 244.5 144c-.8 5.2-1.5 12.4-1.5 16.1 0 6.2-.2 6.7-3.6 10-1.9 1.8-5.4 5.8-7.6 8.7l-4.1 5.3-3.2-8.8c-3.3-9-7-17-11.1-23.4l-2.3-3.7 3.1-7.8c9.3-24 9.3-54.4-.1-77.9-12.5-31.3-39.5-52.6-76.1-60C128.9.6 99.4-.2 85.7 1zM351 280v20H91v-40h260v20zm-22.6 41.7c-.8 3.6-25.4 117.6-25.4 117.9 0 .2-36.9.4-82 .4s-82-.2-82-.4c0-.3-24.6-114.3-25.4-117.9-.4-1.6 5.2-1.7 107.4-1.7s107.8.1 107.4 1.7z"/></svg>