<svg version="1.0" xmlns="http://www.w3.org/2000/svg" width="674.667" height="633.333" viewBox="0 0 506 475"><path d="M22.9 4.9C9.7 7.6 1.2 18.9 2.2 32.3 3.1 42.7 8 49.8 17 53.9c4 1.9 6.6 2.1 25 2.1 11.3 0 21 .4 21.6.8.6.4 1.4 2.9 1.8 5.7.4 2.7 1.6 9.9 2.7 16 1 6 5.9 35.5 10.9 65.5 4.9 30 9.4 57 10 60 1.2 6.5 12.5 74.4 14.5 87.5 4.2 26.4 9.6 56.6 10.9 60.3 2.2 6.2 6.3 10.8 12.7 14.2l5.7 3h149.3c148.2 0 149.4-.1 153.9-2.1 9.4-4.2 14.1-11.1 14.8-21.5.6-9-.8-13-6.4-19.3-8.4-9.4 5.4-8.6-148.5-8.9l-135.5-.2-1.7-11.3c-.9-6.2-1.7-12-1.7-13 0-1.6 8.3-1.7 149.5-1.7 146.9 0 149.5 0 154.8-2 9.4-3.5 14.8-11.3 16.6-24.1.6-4 2.2-15.3 3.6-24.9 1.3-9.6 3.6-25.6 5.1-35.5 1.4-9.9 3.6-25.4 4.9-34.5 12.9-88.4 13.1-90.6 9.7-98.1-2.4-5.4-10-12.5-15.1-13.9-2.3-.6-66.7-1-185.8-1-106.6 0-182.4-.4-182.7-.9-.3-.5-1.7-7.6-3.1-15.7-1.4-8.2-3-16.5-3.6-18.4-2-6-7-11.8-12.9-14.7l-5.5-2.8-33-.2c-18.1-.1-34.6.2-36.6.6zm193.9 129.9l.2 26.2-41.2-.2-41.3-.3-4.2-25c-2.3-13.8-4-25.6-3.8-26.3.4-1 9.9-1.2 45.2-1l44.8.3.3 26.3zm104-.1l.2 26.3h-78v-25.8c0-14.2.3-26.2.7-26.5.4-.4 17.8-.6 38.7-.5l38.1.3.3 26.2zM447 111.8c0 2.1-.4 6.3-1 9.3-.5 3-1.9 12.1-3 20.4-1.2 8.2-2.4 16-2.7 17.2l-.5 2.3H347v-25.8c0-14.2.3-26.2.7-26.5.3-.4 22.8-.7 50-.7H447v3.8zM217 213v26l-34.7-.2-34.8-.3-4.2-25c-2.3-13.8-4.2-25.3-4.3-25.8 0-.4 17.6-.7 39-.7h39v26zm104 0v26h-78v-52h78v26zm115-24.4c0 1.7-4.4 33.3-6.1 43.6l-1.1 6.8H347v-52h44.5c39.7 0 44.5.2 44.5 1.6zM166.5 397.4c-6.1 1.9-10.3 4.4-15.2 8.9-14.9 13.7-16.5 36.9-3.6 53.2 6.5 8.3 18.5 13.8 30.2 13.7 22.1-.1 38.6-16.9 38.4-39.2-.2-16.9-11-31.7-26.8-36.5-6-1.8-17.5-1.8-23-.1zm234.5 0c-10 2.8-18.5 10.4-23.8 21.4-3.1 6.6-3.5 8.2-3.4 15.5 0 13.2 4.9 23.1 15.2 31.3 11.2 8.9 29 10.1 42.8 3 5-2.6 12.4-10.8 15.7-17.2 2.8-5.5 3-6.7 3-16.9 0-10.5-.1-11.3-3.2-17-1.8-3.3-4.5-7.4-6-9.1-3.9-4.4-12.9-9.9-18.5-11.2-5.9-1.5-16-1.4-21.8.2z"/></svg>