<svg version="1.0" xmlns="http://www.w3.org/2000/svg" width="682.667" height="572" viewBox="0 0 512 429"><path d="M14.4 5.4C8.6 8.1 2.4 14.8 1 19.9-.6 25.7-.2 35 1.9 39.5c1 2.2 3.6 5.7 5.7 7.7 7.1 6.7 8.9 7.1 37.3 7.7l25.4.6L97.6 172c15 64.1 28 119.4 29 122.9 2.7 10.1 6.8 17.2 13.7 23.8 8.5 8.2 13.8 10.8 27.9 13.7l2.6.6-5.2 5.5c-8.5 8.8-14.5 23.6-14.6 35.6 0 13.7 5.8 27.5 15.8 37.6 28.2 28.2 76.2 15.8 87.6-22.7 1-3.3 1.7-9.1 1.7-14.5 0-14.8-4.6-26.2-14.9-36.8l-4.6-4.7h93.2l-5.1 5.3c-19.8 20.3-19.5 53 .8 73.2 20.2 20.2 51.7 20.9 72.7 1.6 11.1-10.2 16.8-23.3 16.8-38.6 0-13.8-4.4-25.2-13.7-35.4l-5.3-5.9 14.3-.4c12.2-.3 14.8-.7 18.2-2.5 8.1-4.3 13.3-11.9 14.2-20.8 1.1-10.5-5.2-21.5-14.7-25.9-4.5-2.1-5.1-2.1-128-2.4l-123.6-.2-3-13.3-3-13.2 132-.5c127.7-.5 132.3-.6 136.6-2.4 9.5-4.1 17.7-11.2 21.6-18.7.9-1.9 12.8-32.9 26.3-68.9l24.5-65.5V87c.1-11 0-11.8-3.1-18.1-4.1-8.2-11.1-15-20.1-19.2l-6.7-3.2-131.9-.3-131.9-.2-4.4 2.1c-11.5 5.5-12.4 22.6-1.6 29.9l3.7 2.5 129.2.3 129.3.2 2 2.5c1.5 1.9 1.7 3.2 1.1 5.3-3.1 10.7-47.5 128-48.8 129-1.2.9-29.6 1.2-133.8 1.2-125.1 0-132.3-.1-132.8-1.8-.3-.9-9.6-40.4-20.6-87.7-11.1-47.3-20.8-88.4-21.7-91.4-3.4-11.9-14.3-25-24.9-30.1-9.8-4.6-13.1-5-44.9-5-29.4 0-30.1.1-35.1 2.4z" fill="#272424"/></svg>