<svg version="1.0" xmlns="http://www.w3.org/2000/svg" width="682.667" height="518.667" viewBox="0 0 512 389"><path d="M2.6 5.1L0 7.1v375.8l2.6 2 2.7 2.1h501.4l2.7-2.1 2.6-2V7.1l-2.6-2-2.7-2.1H5.3L2.6 5.1zM472.5 31l-12 12h-409l-12-12-12-12h457l-12 12zM40 195v140.5l-12 12-12 12v-329l12 12 12 12V195zm456 .2v164.3l-12-12-12-12v-281l11.7-11.7c6.5-6.5 11.9-11.8 12-11.8.2 0 .3 73.9.3 164.2zm-40-64.3v71.9l-12.7.6c-40.6 2.1-63.3 5.6-99.7 15.2l-16.9 4.5-24.6-24.4c-14.3-14.1-26.5-25.4-29.2-26.9-17.4-9.6-37.5-8.8-52.8 2.1l-3.3 2.4-21.2-21.1c-11.6-11.6-22.9-22-25.1-23.1-4.9-2.6-14.8-2.8-20.3-.6-2.5 1.1-17.9 15.8-48.9 46.8L56 223.5V59h400v71.9zm-271.8 35.8l20.8 20.8-16.1 16.1-16.1 16.1-22.6.1c-23.4 0-45.1 2-66.1 6.1l-9.3 1.8 40.8-40.8c38.1-38.1 41.1-40.9 44.3-40.9 3.2 0 5.3 1.8 24.3 20.7zm77.1 17.6c4.8 2.2 9.7 6.5 26.3 22.9 11.2 11.1 20.2 20.3 20 20.5-1 1-27.2 5.3-38.8 6.4-14.4 1.3-13.4 1.4-32.3-3.4-7.7-2-19.4-4.5-26-5.7-6.6-1.2-13.1-2.4-14.4-2.6-2.2-.5-1.2-1.8 11.5-14.5 17.7-17.8 22.2-21.6 29.2-24.6 7.6-3.2 16.3-2.8 24.5 1zM456 275v56H56v-81.9l3.8-1c31.8-8.6 60.4-12.4 91.2-12.4 39.5 0 66.9 5.1 119.5 21.9 43 13.8 52.1 16 67.8 17.1 8.2.6 8.9.5 11.2-1.7 3-2.8 3.3-7.8.7-11-1.4-1.8-3.4-2.3-10.2-3.1-11.6-1.3-21.1-3.3-35.9-7.6l-12.5-3.7 13-2.7c7.1-1.5 23.3-5.4 35.9-8.7 44.3-11.7 72.9-16.1 109.8-17.1l5.7-.1v56zm16.5 84l12 12h-457l12-12 12-12h409l12 12z"/><path d="M357.5 100.6c-7.3 2.6-13.7 8.3-17.5 15.8-3.1 6.1-3.5 7.7-3.4 14.5.1 12.9 6.7 23.6 17.8 28.7 26.4 12.2 53.6-12.9 43.5-40.3-5.7-15.4-24.8-24.3-40.4-18.7zm19.3 17.1c5.1 3.8 6.7 7 6.7 13.3 0 7.1-2.1 10.5-8.5 13.7-5.6 2.9-8.6 2.9-14 0-4.8-2.5-9-8.9-9-13.6 0-4.6 4.2-11.4 8.5-13.9 4.8-2.8 12.2-2.6 16.3.5z"/></svg>