<svg height="533pt" viewBox="-132 -16 533 533.333" width="533pt" xmlns="http://www.w3.org/2000/svg"><path d="M163.484 0C109.45 0 65.488 42.637 65.488 95.043v229.059c0 32.964 27.578 59.785 61.532 59.785 33.902 0 61.484-26.82 61.484-59.785V207.777c0-6.902-5.598-12.5-12.5-12.5s-12.5 5.598-12.5 12.5v116.325c0 19.18-16.367 34.785-36.535 34.785-20.117 0-36.48-15.606-36.48-34.785V95.043c0-38.621 32.75-70.043 72.995-70.043 40.25 0 73 31.422 73 70.043v274.68C236.492 427.773 187.367 475 126.992 475 66.622 475 17.5 427.773 17.5 369.723V207.777c0-6.902-5.598-12.5-12.5-12.5-6.906 0-12.5 5.598-12.5 12.5v161.946C-7.5 441.559 52.832 500 126.992 500s134.5-58.441 134.5-130.277V95.043C261.492 42.637 217.523 0 163.484 0zm0 0"/></svg>