<svg version="1.0" xmlns="http://www.w3.org/2000/svg" width="165.333" height="165.333" viewBox="0 0 124 124"><path d="M50 4.6c-10.9 2.3-20.5 7.7-29.1 16.3C7.3 34.6 2.4 47.4 3.3 66.5c.4 9.3 1 12.2 3.6 18.5 6.2 14.9 15.8 25.4 29.6 32 9.6 4.6 15.9 6 26.8 6 38 0 67.3-37.3 57.8-73.5-3.8-14.5-12-26.7-23.5-35-8-5.7-14.3-8.4-23.6-10.1-9.4-1.7-15.7-1.6-24 .2zm25.8 9.8c15.3 4.1 28.2 15.7 34.3 30.7 2.7 6.9 3.7 22.3 1.9 30-3.8 16.1-16.9 30.6-32.5 35.9-29.7 10.2-61.3-8.6-66.7-39.8-3.2-19 6.1-39.9 22.5-50.4 11.4-7.3 27.5-9.8 40.5-6.4z"/><path d="M66.6 36.6c-.9.8-1.6 2.2-1.6 3.1 0 .8 3.6 5.2 8 9.7 4.4 4.5 8 8.5 8 8.9 0 .3-10.9.6-24.2.7-26.9.1-28.1.3-26.2 5.7l.9 2.8 24.8.3c13.6.1 24.7.5 24.7.9s-3.6 4.4-8 8.9-8 8.7-8 9.3c0 1.5 3.7 5.1 5.3 5.1.7 0 7.5-6.3 15.1-13.9l13.7-13.9-1.4-2.9C95.3 56.8 72.6 35 70.2 35c-1.1 0-2.8.7-3.6 1.6z"/></svg>