<svg version="1.0" xmlns="http://www.w3.org/2000/svg" width="554.667" height="470.667" viewBox="0 0 416 353"><path d="M44 3.6C23.7 7.9 6.8 24 1.5 44c-2.2 8.2-2.2 196.8 0 205 4.7 17.8 18.2 32.5 35.8 38.9L40 289v25.5c0 28.3.2 29.2 6.3 33.9 4 3.1 8.3 4.1 13.4 3.1 3.3-.6 7.7-4.6 33.8-30.6l30-29.9 124.5-.2 124.5-.3 6.5-2.5c17.6-6.9 31-21.4 35.5-38.5 2.2-8.7 2.3-197.1 0-205.5-5.4-20.3-22.2-36.1-43-40.5C361.3 1.4 54 1.4 44 3.6zm324 16.8c16.6 3.6 28.8 17.1 31.1 34.4 1.1 8.8 1.1 174.7 0 183.4-2.1 15.9-12.3 28.6-27.6 34.2-2.1.7-40.7 1.2-129.2 1.6l-126.3.5-30 30-30 30v-28.3c0-32 .2-31.1-8.2-33.1-11.5-2.9-22.6-12-27.5-22.7-1.4-3-2.9-8.5-3.4-12.2-1.1-8.7-1.1-174.7 0-183.4 2.2-17 14.4-30.7 30.6-34.3 9.1-2 311.1-2.1 320.5-.1z"/><path d="M68.3 67c-4.7 1.9-5.9 10.1-2 13.8l2.3 2.2h279.1l2.1-2.3c2.8-2.9 2.9-8.6.3-11.8l-1.9-2.4-138.9-.2c-78.8-.1-139.7.2-141 .7zm0 48c-4.7 2-5.9 10.1-2 13.8 2.3 2.1 3 2.2 29.8 2.2 27.5 0 27.6 0 29.7-2.3 2.8-2.9 2.9-8.6.3-11.8l-1.9-2.4-26.9-.2c-14.7-.1-27.8.2-29 .7zm80 0c-4.7 1.9-5.9 10.1-2 13.8l2.3 2.2h199.1l2.1-2.3c2.8-2.9 2.9-8.6.3-11.8l-1.9-2.4-98.9-.2c-55.7-.1-99.8.2-101 .7zm-80 48c-4.7 1.9-5.9 10.1-2 13.8l2.3 2.2h143.1l2.1-2.3c2.8-2.9 2.9-8.6.3-11.8l-1.9-2.4-70.9-.2c-39.6-.1-71.8.2-73 .7zm168 0c-4.7 1.9-5.9 10.1-2 13.8l2.3 2.2h111.1l2.1-2.3c2.8-2.9 2.9-8.6.3-11.8l-1.9-2.4-54.9-.2c-30.4-.1-55.8.2-57 .7zm-168 48c-4.7 1.9-5.9 10.1-2 13.8l2.3 2.2h279.1l2.1-2.3c2.8-2.9 2.9-8.6.3-11.8l-1.9-2.4-138.9-.2c-78.8-.1-139.7.2-141 .7z"/></svg>