<svg version="1.0" xmlns="http://www.w3.org/2000/svg" width="80" height="78.667" viewBox="0 0 60 59"><path d="M1 1.9C-.4 4.6-.4 4.5 3 8.4c2.8 3.1 2.9 3.7 1.8 5.6-1.1 1.8-1.1 2.3.2 3.3.8.7 2.3 2.2 3.4 3.4 1.8 2.2 1.8 2.2-2.2 7-5.1 6-6.7 11.7-5.1 17.5C2.6 51 5.4 54.7 10 57c7.5 3.8 16.3 2 23.2-4.7l3.6-3.5 3.7 3.6c3.4 3.4 3.8 3.6 5.4 2.2 1.6-1.5 2-1.3 4.6 1.4 3.3 3.4 7 3.9 8.5 1.1 1.5-2.9 1.3-3.6-2.1-6.9-2.7-2.6-2.9-3.2-1.8-5.1 1.2-1.8 1-2.4-2-5.5l-3.4-3.5 3.7-4.2c6.7-7.4 8.1-13.9 4.7-21.5-2.8-6.1-8-9.7-15-10.2-6.8-.5-10.9 1.2-15.9 6.7L24 10.4l-4-3.9c-3.7-3.6-4-3.8-5.8-2.2-1.7 1.6-2 1.5-4.7-1.3C6.2-.4 2.5-.9 1 1.9zm6.9 3.5c3.1 3.3 1.7 5.5-1.5 2.5C4.1 5.7 3.2 3 4.8 3c.5 0 1.9 1.1 3.1 2.4zM50 5.2c7.5 5.2 8.9 14.3 3.4 22.1-5.3 7.4-5.2 7.4-16.9-4.3L26 12.6l2.8-2.9C35.4 2.6 43.6.9 50 5.2zM34.8 25.3L53 43.6l-4.3 4.2-4.2 4.2L26 33.5 7.6 15l3.9-4c2.1-2.2 4.2-4 4.5-4 .3 0 8.7 8.2 18.8 18.3zM34 46.9c0 1.1-4 4.6-8 7-4.5 2.7-10.5 2.7-15 0-4.4-2.7-5.7-4.4-7-9.2-1.5-5.3.1-10.2 5.2-15.4l4.2-4.2 10.3 10.5C29.4 41.4 34 46.5 34 46.9zm23 8.3c0 1.6-2.7.7-4.9-1.6-3.4-3.6-1.6-5.4 2-2 1.6 1.5 2.9 3.1 2.9 3.6z"/><path d="M11 14.9c0 .5 7.5 8.3 16.7 17.4 10.9 10.8 17.1 16.3 17.8 15.6.6-.6-4.8-6.7-15.5-17.4-14.9-14.9-19-18.3-19-15.6z"/></svg>