<svg version="1.0" xmlns="http://www.w3.org/2000/svg" width="1066.667" height="676" viewBox="0 0 800 507"><path d="M72 2.5c-6 1.9-11.9 7.1-15 13.1l-2.5 4.9-.3 114c-.2 62.7 0 116.4.3 119.3.9 7.1 4.3 11.1 10.4 11.9 3.2.4 5.3.1 7.7-1.2 6.8-3.6 6.4 4 6.4-123.4V26l241.3.2 241.2.3.3 115.8c.2 105.5.4 116 1.9 118.3 3.3 5.1 10.6 6.8 16.3 3.9 4.6-2.4 6-6.2 6-16V240l79.8.2 79.7.3 5.5 2.6c7.6 3.6 15 10.6 18.8 17.7 1.8 3.3 3.2 6.3 3.2 6.6 0 .3-9 .6-20 .6-21.3 0-24.6.6-28.5 5-1.9 2.1-2 3.6-2 23.4 0 20.8 0 21.2 2.7 26.8 3.7 8 10.7 15.2 18.7 19.1 6.1 3 7.4 3.2 18.8 3.6l12.3.3V402h-32.5l-4.2-8.8c-9.5-19.6-26.8-34.6-47.8-41.2-10.8-3.4-30.3-3.9-41.5-1.1-24.4 6.2-44.9 23.4-54.1 45.6-2.1 5.1-2.5 5.5-5.6 5.5H586v-99l-3.2-3.5c-4.1-4.5-9-5.5-14.2-3-2 1-4.2 2.7-4.9 3.9-.9 1.5-1.3 15.4-1.7 51.6l-.5 49.5-129.8.3-129.8.2-2.5-5.7c-5.3-12-15.5-24.7-26.4-32.9-5.9-4.4-21.5-11.4-29.2-13-11.4-2.5-31-1.5-41.3 2-20.7 7.1-36.5 20.9-46.2 40.3l-4.6 9.3H79v-29h28.8c20.8 0 29.4-.4 31.1-1.3 4.1-2.1 6.6-6.4 6.6-11.4 0-3.9-.5-4.9-3.7-7.9L138 349H73.8c-61.6 0-64.4.1-67.4 1.9-6.3 3.8-6.9 13.3-1.3 18.7l3 2.9 22.8.3 22.8.3.5 16.9c.4 16.3.5 17.1 3.4 22.6A25.6 25.6 0 0075 425.9c3.1.7 18.4 1.1 38.9 1.1h33.8l.6 7.7c2.9 35.4 30 64.6 65.8 70.9 27.3 4.7 55.9-6.1 73.9-27.9 9.8-12 17.9-33.1 18-47V427h281.9l.6 5.7c2.4 21.8 9.5 37.3 23.5 51.1 32 31.6 83.1 30.2 113.6-3.1 12.5-13.7 20.3-32.3 20.4-48.5V427h21.3c18.5 0 21.7-.3 25.3-1.9 7.7-3.5 7.4.1 7.4-79 0-78.6 0-79.2-6.9-93.6-8.5-17.9-24.5-31.1-43.1-35.6-3-.7-5.7-1.4-5.9-1.5-.2-.2-4.9-18.8-10.6-41.4l-10.3-41.1 3-1.5c5.5-2.8 6.8-6.5 6.8-19.4 0-12.8-1.4-19.9-5.8-28.8-3.4-7.2-12.9-17.3-19.7-21.2-11.8-6.8-8.7-6.4-67.5-7l-53.5-.5L586 37c-.6-19.9-1.3-22.4-8-28.9-8-7.7 13.9-7.1-257.9-7-205.6 0-244.3.3-248.1 1.4zm619.1 78.7c8.9 4 16.9 14.9 16.9 23.1v3.7l-60.7-.2-60.8-.3-.3-12.9c-.1-7.2 0-13.6.3-14.3.4-1.1 9.3-1.3 50.7-1.1 44.2.3 50.7.5 53.9 2zm7.3 53.5c1.2 4.4 19.6 78.6 19.6 79.4 0 .5-26.9.9-66 .9h-66v-82h55.9c52.4 0 56 .1 56.5 1.7zM775 307v14h-9c-15.4 0-19-3.5-19-18.8V293h28v14zm-534.9 67.9c15.1 3.9 28.4 14.5 35.1 28.2 4.6 9.2 5.7 14.2 5.8 24.4 0 15.3-5.1 27.9-15.9 38.6-20.9 20.9-53.3 21.5-74.9 1.4-11.7-10.8-17.5-23.7-17.5-39 .1-16.6 4.6-27.8 15.8-39 8-8.1 14.3-11.8 24.7-14.5 9.4-2.4 17.6-2.5 26.9-.1zm441.7.4c10.3 3 18 7.7 25.2 15.3 21.1 22.6 19.3 57.7-4 78.1-24.7 21.6-63 16.4-80.9-11-5.7-8.8-8.2-16.5-8.8-27.2-1.5-25.8 15.3-48.8 40.7-55.6 9.2-2.5 18.2-2.4 27.8.4z"/><path d="M218.7 403.4c-4.5 1.7-9.9 5.6-12.5 9.3-2.5 3.5-5.2 11.5-5.2 15.1.1 4.1 3.3 12.5 6 15.9 7 8.6 19.6 11.7 29.8 7.3 13.6-5.8 19.3-22 12.4-35.1-5.9-11.3-18.8-16.6-30.5-12.5zm440.8-.2c-10.2 3.8-16.5 12-17.3 22.7-.8 11.5 4.7 20.5 15.7 25.4 6.2 2.7 16.2 2 22.5-1.7 10.9-6.4 15.6-21.8 10-32.9-2.3-4.6-7.3-9.5-11.9-11.9-4.6-2.4-14.6-3.3-19-1.6zm-236-281.1c-2 .6-21.6 19.5-59.7 57.6L307 236.5l-30.8-30.8-30.8-30.7h-4.3c-5 0-9.2 2.2-11.5 6-1.9 3.2-2.1 8.2-.5 11.3 1.6 3.1 68.8 70.5 72.1 72.3 3.4 1.8 8.2 1.8 11.6 0 2.9-1.6 121.9-120.5 124.6-124.6 3.9-5.9.9-14.7-6-17.6-3.7-1.6-3.8-1.6-7.9-.3zM35.4 296c-1.1.4-3.3 2.2-4.7 4-5.3 6.2-2.8 15.4 4.9 18.6 4.9 2.1 163.9 2.1 168.8 0 4.8-2 7.6-6.1 7.6-11-.1-5-1.7-8.1-5.6-10.7-2.8-1.8-5.5-1.9-85.9-1.8-45.6 0-83.9.4-85.1.9zm290.7 55.6c-1.7 1.4-3.6 4.2-4.2 6.3-1.5 4.9.7 10.3 5.3 13.1 3.2 2 4.8 2 99.8 2 74.6 0 97-.3 98.9-1.3 5.9-3 8.3-11.1 5.1-17.2-3.1-5.7 1.6-5.5-104.4-5.5h-97.4l-3.1 2.6z"/></svg>