<svg version="1.0" xmlns="http://www.w3.org/2000/svg" width="690.667" height="565.333" viewBox="0 0 518 424"><path d="M254.4 5.8c-1.2.2-3.2 1.4-4.5 2.8l-2.4 2.6-.3 66.1-.3 66.2-121.8 78.3C29.7 283.1 2.9 300.8 2 302.9c-1.5 3.6-.4 7.6 2.7 10.1 2.5 2 4.3 2 70.3 2h67.8l.6 5.8c1.8 15.2 8.8 33.9 18 48.1 5.6 8.7 18.7 22.5 27.5 29 40.5 30 95.7 30 136.2 0 8.8-6.5 21.9-20.3 27.5-29 9.2-14.1 16.2-32.9 18-48.2l.6-5.7H439c66.4 0 67.8 0 70.3-2 3.2-2.6 4.3-7 2.5-10.5-1-1.8-39.4-27-123.9-81.3l-122.4-78.7L265 77c-.4-49.2-.8-66-1.7-67.6-1.4-2.4-5.7-4.2-8.9-3.6zm110.7 221.4c59.3 38.1 107.9 69.6 107.9 70 0 .5-97.2.8-216 .8s-216-.3-216-.8c0-.6 214.8-139.1 215.9-139.2.2 0 48.9 31.2 108.2 69.2zm-34.2 92.5c-6.2 33.3-33.9 58.2-67.9 61-8.3.6-10 1.5-10 4.9 0 3.8 2.8 4.6 12.8 3.4 37.7-4.2 68.3-33 73.7-69.3l.7-4.7h13.7l-.6 3.7c-5.2 36-29.2 66-62.5 78.2-12.7 4.7-17.8 5.5-33.8 5.5-16 0-21.1-.8-33.8-5.5-33.3-12.2-57.3-42.3-62.5-78.2l-.6-3.7h171.6l-.8 4.7z"/><path d="M175.5 226c-59.1 38-79.1 51.4-79.3 53-.5 2.8 1.7 5.3 4.3 4.8 1.8-.4 149.3-94.6 157.3-100.5 2.5-1.9 3.2-3.1 3-5.1-.8-6.6-1.5-6.2-85.3 47.8z"/></svg>