<svg version="1.0" xmlns="http://www.w3.org/2000/svg" width="410.667" height="682.667" viewBox="0 0 308 512"><g fill="#fff"><path d="M137 1.1C85.4 6.9 39.6 39 16.7 85.5 5.2 108.9.8 128.3.9 156.6c0 20.5 1.3 34.1 5.2 57.1C19.4 292.5 60.6 386 121.8 476c19 28 23.6 33.7 28.2 35.1 5.7 1.7 11 0 14.8-4.9 5.7-7.2 22.9-31.9 31.9-45.7 62.8-96.7 101.6-194.4 109.3-276 1.6-15.9 1.6-42 .1-52-7.7-51.1-38.8-93.8-84.9-116.9C197.2 3.5 164.9-2 137 1.1zm38.4 26.5c40.2 7 73.8 31.8 92.3 68 10.8 21.1 15 41.5 13.9 68.4-2.9 77-36.8 170.6-96.9 267.5C173.1 450.1 155 477 154 477s-19.1-26.9-30.7-45.5c-60.2-97-94-190.4-96.9-267.5-1.1-26.9 3.1-47.3 13.9-68.4 18.3-35.9 51.9-60.8 91.7-68 10.5-1.9 32.5-1.9 43.4 0z"/><path d="M140.1 78c-7.6 1.6-14.3 4.1-22.6 8.3-6.2 3.2-10.1 6.2-17.6 13.7-8.1 8.1-10.2 10.9-14.2 19-6.1 12.4-8 20.7-8 34.5-.1 13.3 1.8 21.8 7.3 33.2 9.1 18.8 24.5 32.4 44.7 39.7 8.4 2.9 9.5 3.1 24.3 3.1s15.9-.2 24.3-3.1c20.2-7.3 35.6-20.9 44.7-39.7 5.5-11.4 7.4-19.9 7.3-33.2 0-13.8-1.9-22.1-8-34.5-4-8.1-6.1-10.9-14.2-19-10.5-10.4-19.1-15.8-32.6-20-7.9-2.5-27.7-3.6-35.4-2zm29.7 27.2c20.7 6.6 35.2 26.7 35.2 49 0 29.8-28.6 54.4-58 49.9-34.3-5.3-54-42.2-38.8-72.6 11.7-23.3 37-34.2 61.6-26.3z"/></g></svg>