<svg version="1.0" xmlns="http://www.w3.org/2000/svg" width="682.667" height="566.667" viewBox="0 0 512 425"><path d="M49.2 1.5C42.7 4.3 43 .2 43 102.2v92.3l-7.7 6c-15.9 12.5-29.4 32.6-32.8 49C1.1 256.3.8 285.9 1 396.8v21.4l2.9 2.9c4.1 4.1 10.1 4.1 14.2 0l2.9-2.9V384h470v15.4c0 16.5.8 20.6 4.5 23 2.8 1.8 8.7 2.1 11.6.6 5-2.7 4.9-1.1 4.9-86.5 0-89.7.2-87-7.5-103-5.8-12-15.2-23.5-26.4-32.5l-9.1-7.3v-92.8c.1-57.3-.3-93.5-.9-94.6-.5-1-1.9-2.7-3.1-3.8-2.2-2-4.2-2-207.4-2.2C81.4.1 52 .3 49.2 1.5zm399.6 100.2c.1 48.6-.2 80.3-.7 80.3-.5 0-5.6-1.6-11.3-3.5-5.7-1.9-15-4.2-20.8-5.3l-10.5-1.8-.5-30c-.6-34-.6-34-9.2-42.7-9-9-16.7-10.9-31.6-7.8-14.4 3-30 2.8-45.7-.4-16.8-3.5-23.3-1.9-32.5 8.2-7.6 8.3-8 10.5-8 44V171h-42.9l-.3-28.8c-.3-27.7-.4-28.9-2.7-33.9-2.7-6.1-10.3-13.6-16.4-16.3-7.2-3.2-11.4-3.4-22.6-1-9.1 2-12.3 2.2-25 1.7-9.1-.3-16.9-1.2-20.6-2.3-13-3.6-23.8-1.1-31.6 7.3-8.2 8.9-8.4 9.8-8.7 43.8l-.3 30.1-10.2 1.7c-5.6 1-15.3 3.5-21.4 5.6L64 182.7V21l192.3.2 192.2.3.3 80.2zm-303.3 9.8c11.3 2.6 35.1 3.1 46.5 1 15.6-2.9 17.3-3 19.5-.5 1.9 2.1 2 3.9 2.3 30.6l.3 28.4h-86.2l.3-29.3c.3-33 .4-33.3 6.8-32.4 1.9.3 6.7 1.3 10.5 2.2zm175 .4c13.3 2.5 30.6 2.7 42 .5 15.3-2.8 17.8-2.9 20-.4 1.9 2.1 2 3.6 2 30.4v28.1l-42.7.3-42.8.2v-29.1c0-19.2.4-29.7 1.1-31.1 1.2-2.3 1.7-2.3 20.4 1.1zm90 81.1c13.7 2 35.4 8.8 39.5 12.5.8.7 3.9 2.6 6.8 4.1 9.6 5.2 21.2 16.6 26.6 26.1 2.5 4.3 5.8 12.8 7 17.5l.6 2.8H22l.6-2.8c2.4-10 6.8-18.8 13.3-26.7 4.9-5.9 14.6-14.3 19.1-16.4 1.9-.9 4.9-2.6 6.6-3.8 6.7-4.8 26-11.2 39.9-13.2 8.6-1.2 300.2-1.3 309-.1zM491 320v43l-234.7-.2-234.8-.3-.3-41.5c-.1-22.8 0-42.1.3-42.7.3-1 48.2-1.3 235-1.3H491v43z"/></svg>