<svg version="1.0" xmlns="http://www.w3.org/2000/svg" width="682.667" height="577.333" viewBox="0 0 512 433"><path d="M219.5 5.6c-28.2 2-37.2 2.8-51 4.5-61.5 7.5-111.3 22.7-141.3 43C16.5 60.3 8.7 68.4 3.9 77.3L.5 83.5v52l2.8 5.8c13.8 27.9 65.5 52 138 64.2 25.8 4.3 65.6 8.4 82.5 8.5h5.2v137l-2.2.4c-1.3.3-5 .8-8.3 1.1-18 1.9-40.4 7.9-52.8 14.2-16.1 8.1-23 20.1-18.2 31.6 10.8 25.9 89.9 40.2 157.8 28.6 44.9-7.7 67.7-24.9 58.8-44.4-6.2-13.5-32.7-25.1-67.6-29.5-4.9-.6-10-1.3-11.2-1.6l-2.3-.4V214h5.3c8.3-.1 41.4-2.7 55.4-4.5 51.4-6.6 90.2-16.8 122-32.2 21.1-10.2 36.7-23.3 43-36l2.8-5.8v-52l-3.4-6.2c-4.8-8.9-12.6-17-23.3-24.2C450.8 30 394.2 14.5 319 7.4c-15.4-1.4-86.4-2.7-99.5-1.8zM306 18c87.2 6.2 159.1 27.6 184.3 54.9 8 8.7 10.1 13.1 10.1 21.1 0 7-2.1 12.3-7.5 19-3.7 4.4-3.8 8.4-.3 10.7 2.5 1.6 2.8 1.6 5.7 0l3-1.8-.5 4.9c-2 21.1-33.3 42.1-84.3 56.6-29.7 8.4-62.1 14-104.5 17.8-19.5 1.7-92.5 1.7-112 0-87.9-7.9-151.4-27.3-177.9-54.1-6.9-7.1-10.2-13.4-10.9-20.5l-.4-5.1 4.3 4.1c17.6 16.6 46.4 29.9 87.4 40.4 25.8 6.6 53.8 11.3 87.5 14.6 22.5 2.2 85.6 3 109.9 1.5 68.8-4.4 128-17.2 165.9-35.9 10.3-5 12-6.9 10.2-11.2-1.8-4.4-5-4.3-14.8.5-88.7 43-270.2 48.7-380.9 11.9-33.1-11-57.5-26.4-65.9-41.6-3.7-6.9-4-16.1-.6-22.5 3.3-6.4 12.9-16.1 21.2-21.6 38.3-25.2 111.4-41.8 197.5-45.1 13.7-.5 58.3.4 73.5 1.4zm-35 278.5c0 80.2 0 81.5 2 83.5 2.4 2.4 4.9 2.5 7.5.6 1.6-1.2 2-2.9 2.3-9.6l.4-8.2 6.2.7c18.3 2 42.1 8.4 52.7 14.2 5.4 2.9 11.5 8.6 12.5 11.5.6 2.1-1.6 6.6-4.8 9.4-6.2 5.6-23.8 12.5-39.8 15.8-32.6 6.6-75.4 6.6-108 0-16-3.3-33.6-10.2-39.8-15.8-3.2-2.8-5.4-7.3-4.8-9.4 1-2.9 7.1-8.6 12.5-11.5 10.7-5.9 34.4-12.2 52.9-14.2l6.2-.7v6.6c0 8.7 1.8 13 6.7 15.4 4.4 2.3 18.3 4.7 21.9 3.8 3-.8 4.6-3.8 3.8-7.2-.7-2.9-3.8-4.4-9.1-4.4-2 0-5.3-.5-7.4-1.2l-3.9-1.1V215h30v81.5z"/></svg>