<svg version="1.0" xmlns="http://www.w3.org/2000/svg" width="618.667" height="613.333" viewBox="0 0 464 460"><path d="M276 .7c-.8.2-11.1 5-22.7 10.5L232 21.3l-21.2-10.2C190.5 1.5 189.2 1 183 1c-7.2 0-13 2.2-17 6.3-1.4 1.4-8.3 10.4-15.5 20-11.7 15.8-13.3 17.5-16.5 18.1-1.9.3-12 .6-22.5.6-20.7 0-23.7.5-30.7 4.9-7.8 5-9.2 8.5-13.6 34.9-2.1 12.8-4.3 23.7-4.8 24.1-.5.5-9.4 5.5-19.9 11.1-20.2 11-25.2 14.8-28.5 21.7-3.6 7.7-2.9 12.6 5.6 36.8 4.1 12 7.3 22.2 7.1 22.9-.3.6-6.1 10-13 20.9C.5 244.1-1 247.8.5 255.7c1.3 7 4.4 11 21.4 27.5L39 299.8l-2.1 24.7c-2.4 29.3-2.1 31.2 6 38.9 5.3 4.9 4 4.4 33.5 12.5 9.8 2.8 18.1 5.2 18.4 5.5.3.3 4.4 9.9 9.2 21.3 9.3 22 12.4 26.9 19.1 30.4 7.2 3.6 11.6 3.4 34.8-1.5 11.8-2.5 22.3-4.6 23.3-4.6 1.1 0 6.6 3.7 12.1 8.3 25.5 20.9 26.6 21.6 32.4 23.3 4.8 1.4 6.5 1.5 11 .4 4.7-1 7.7-3 24.3-16.6 10.4-8.5 19.7-15.4 20.7-15.4s11.4 2 23.1 4.5c11.8 2.5 22.8 4.5 24.4 4.5 6.1 0 11.2-2.3 16.3-7.5 4.5-4.5 5.9-7.1 13.4-25.5 4.7-11.3 8.7-20.8 9.1-21.2.3-.5 9.6-3.3 20.5-6.3 27.1-7.5 26.3-7.2 31.6-12.2 8.1-7.6 8.4-9.6 5.9-38.8l-2.1-24.6 17.7-17.2c11.4-11.1 18.4-18.6 19.5-21.2 2.1-4.5 2.4-11.9.8-16.2-.6-1.5-6.7-11.7-13.6-22.6l-12.6-19.9 7.1-22.3c7.5-23.2 8.3-28.1 6-35.8-2-6.5-7.1-10.6-27.7-22.3-11.4-6.4-19.7-11.7-20.2-12.9-.4-1.1-2.4-11.8-4.4-23.9-3.6-22.3-4.7-26-9.4-30.9-5.9-6.5-8.3-7-35.3-8.1l-24.7-1.1-14.4-19.3c-8-10.6-15.6-20.1-17-21.2-5-3.9-14.6-6.1-19.7-4.3zm8.2 20c.9 1 8.6 11.2 17.2 22.8l15.6 21 27.6 1.1c15.1.6 28 1.6 28.5 2.1s3 13.1 5.5 27.9c3.2 19.3 4.9 27.2 6 28.1.9.6 11.7 6.9 24 13.9 16.8 9.6 22.4 13.3 22.4 14.7 0 1-3.6 13-8 26.6-4.4 13.6-8 25.3-8 26 0 .8 6.5 11.7 14.5 24.3 8 12.6 14.5 23.1 14.5 23.5 0 .3-9 9.4-20.1 20.2l-20 19.6 2.3 27.3c1.6 19.9 1.9 27.7 1.2 29-.8 1.1-9.3 3.9-26.7 8.7-14.1 3.9-26.1 7.5-26.6 8-.5.6-5.5 11.8-11 25-5.6 13.2-10.8 24.6-11.4 25.3-1.1 1-6.3.2-27.5-4.3-14.4-3-26.9-5.5-27.8-5.5-1.1 0-29.2 22-41.6 32.8-1 .8-2.7 1.2-4 .8-1.3-.3-11.5-8.1-22.7-17.2l-20.4-16.7-5.1 1c-2.8.5-14.5 2.9-26.1 5.3-12.8 2.7-22 4.1-23.6 3.7-2.3-.6-3.8-3.4-12.8-24.9-5.7-13.4-10.7-24.7-11.2-25.3-.5-.5-12.5-4.1-26.6-8-17-4.7-26-7.6-26.7-8.8-.7-1.1-.4-9.4 1.2-28.9l2.3-27.3-20-19.5C28 262.2 19 252.9 19 252.2c0-.6 6.5-11.4 14.5-24S48 204.6 48 203.7c0-.8-3.8-12.5-8.5-25.9-7.4-21.1-8.4-24.6-7.4-27 .9-2.1 6.1-5.4 24.6-15.4 12.9-7.1 23.7-13.3 24-14 .2-.6 2.3-12.7 4.7-26.8 3-18 4.8-26.2 5.9-27.4 1.5-1.4 5.4-1.7 28.6-2l26.9-.4 16.6-22.4c13-17.4 17.2-22.4 19-22.4 1.2 0 12.4 4.9 25 11 12.6 6 23.7 11 24.6 11 1 0 10.5-4.2 21.2-9.3 10.6-5.1 21.3-10.3 23.8-11.4 5.5-2.7 5.4-2.7 7.2-.6z"/><path d="M167 121.3c-9.7 2.7-18.2 10.7-22.2 20.6-2 5-2.2 7.7-2.6 26.9-.4 23.4.7 35.2 3.8 41.7 3.4 7 8.6 12.2 15.8 15.7 6 3 7.5 3.3 15.7 3.3 7.8 0 9.7-.4 14.7-2.8 7.1-3.5 14-11 16.9-18.5 2.1-5.1 2.3-7.8 2.7-27 .4-23.4-.7-35.2-3.8-41.7-5.5-11.4-16.5-18.5-29.3-19.1-4-.2-9.2.2-11.7.9zm18.8 22.6c5.7 4 6.5 8.2 6 33.3-.4 24.1-.8 26.3-6 30.1-1.4 1.1-4.8 2.2-7.5 2.4-6.5.6-11.1-2-14-7.7-2.1-4.1-2.3-5.7-2.3-23 0-21 1.1-30.3 3.7-33.2 4.5-5.1 14.3-6.1 20.1-1.9zm96.4-22.7c-3.3 4.2-119.2 216.3-118.8 217.4.7 1.9 16.9 2 18.4.2 3.3-4.1 120.2-216.3 119.8-217.4-.7-1.9-17.9-2-19.4-.2zM277 231.3c-9.7 2.7-18.2 10.7-22.2 20.6-2 5-2.2 7.7-2.6 26.9-.4 23.4.7 35.2 3.8 41.7 3.4 7 8.6 12.2 15.8 15.7 6 3 7.5 3.3 15.7 3.3 7.8 0 9.7-.4 14.7-2.8 7.1-3.5 14-11 16.9-18.5 2.1-5.1 2.3-7.8 2.7-27 .4-23.4-.7-35.2-3.8-41.7-5.5-11.4-16.5-18.5-29.3-19.1-4-.2-9.2.2-11.7.9zm18.8 22.6c5.7 4 6.5 8.2 6 33.3-.4 24.1-.8 26.3-6 30.1-1.4 1.1-4.8 2.2-7.5 2.4-6.5.6-11.1-2-14-7.7-2.1-4.1-2.3-5.7-2.3-23 0-21 1.1-30.3 3.7-33.2 4.5-5.1 14.3-6.1 20.1-1.9z"/></svg>