<svg xmlns="http://www.w3.org/2000/svg" xmlns:xlink="http://www.w3.org/1999/xlink"><defs>
<clipPath id="clip0">
<rect width="30" height="30" fill="white"/>
</clipPath>
</defs><symbol id="icon-arrow" viewBox="0 0 512 512"><path d="M362 1.7c-3.9 1.3-19.8 16.8-123.8 120.7C128.7 231.7 118.8 241.9 117 246.8c-2.5 6.7-2.5 11.7 0 18.4 1.8 4.9 11.7 15.1 121.2 124.4 114.1 114 119.5 119.3 124.7 120.9 21.4 6.9 40.8-14.7 31.5-35.2-1.1-2.5-37.7-39.8-109.3-111.5L177.5 256l107.6-107.7C355.2 78 393.3 39.2 394.4 36.8c6.1-13.5-.4-29.7-14-34.8C374-.3 368.3-.4 362 1.7z"/></symbol><symbol id="icon-arrowsend" viewBox="0 0 124 124"><path d="M50 4.6c-10.9 2.3-20.5 7.7-29.1 16.3C7.3 34.6 2.4 47.4 3.3 66.5c.4 9.3 1 12.2 3.6 18.5 6.2 14.9 15.8 25.4 29.6 32 9.6 4.6 15.9 6 26.8 6 38 0 67.3-37.3 57.8-73.5-3.8-14.5-12-26.7-23.5-35-8-5.7-14.3-8.4-23.6-10.1-9.4-1.7-15.7-1.6-24 .2zm25.8 9.8c15.3 4.1 28.2 15.7 34.3 30.7 2.7 6.9 3.7 22.3 1.9 30-3.8 16.1-16.9 30.6-32.5 35.9-29.7 10.2-61.3-8.6-66.7-39.8-3.2-19 6.1-39.9 22.5-50.4 11.4-7.3 27.5-9.8 40.5-6.4z"/><path d="M66.6 36.6c-.9.8-1.6 2.2-1.6 3.1 0 .8 3.6 5.2 8 9.7 4.4 4.5 8 8.5 8 8.9 0 .3-10.9.6-24.2.7-26.9.1-28.1.3-26.2 5.7l.9 2.8 24.8.3c13.6.1 24.7.5 24.7.9s-3.6 4.4-8 8.9-8 8.7-8 9.3c0 1.5 3.7 5.1 5.3 5.1.7 0 7.5-6.3 15.1-13.9l13.7-13.9-1.4-2.9C95.3 56.8 72.6 35 70.2 35c-1.1 0-2.8.7-3.6 1.6z"/></symbol><symbol id="icon-basket" viewBox="0 0 512 429"><path d="M14.4 5.4C8.6 8.1 2.4 14.8 1 19.9-.6 25.7-.2 35 1.9 39.5c1 2.2 3.6 5.7 5.7 7.7 7.1 6.7 8.9 7.1 37.3 7.7l25.4.6L97.6 172c15 64.1 28 119.4 29 122.9 2.7 10.1 6.8 17.2 13.7 23.8 8.5 8.2 13.8 10.8 27.9 13.7l2.6.6-5.2 5.5c-8.5 8.8-14.5 23.6-14.6 35.6 0 13.7 5.8 27.5 15.8 37.6 28.2 28.2 76.2 15.8 87.6-22.7 1-3.3 1.7-9.1 1.7-14.5 0-14.8-4.6-26.2-14.9-36.8l-4.6-4.7h93.2l-5.1 5.3c-19.8 20.3-19.5 53 .8 73.2 20.2 20.2 51.7 20.9 72.7 1.6 11.1-10.2 16.8-23.3 16.8-38.6 0-13.8-4.4-25.2-13.7-35.4l-5.3-5.9 14.3-.4c12.2-.3 14.8-.7 18.2-2.5 8.1-4.3 13.3-11.9 14.2-20.8 1.1-10.5-5.2-21.5-14.7-25.9-4.5-2.1-5.1-2.1-128-2.4l-123.6-.2-3-13.3-3-13.2 132-.5c127.7-.5 132.3-.6 136.6-2.4 9.5-4.1 17.7-11.2 21.6-18.7.9-1.9 12.8-32.9 26.3-68.9l24.5-65.5V87c.1-11 0-11.8-3.1-18.1-4.1-8.2-11.1-15-20.1-19.2l-6.7-3.2-131.9-.3-131.9-.2-4.4 2.1c-11.5 5.5-12.4 22.6-1.6 29.9l3.7 2.5 129.2.3 129.3.2 2 2.5c1.5 1.9 1.7 3.2 1.1 5.3-3.1 10.7-47.5 128-48.8 129-1.2.9-29.6 1.2-133.8 1.2-125.1 0-132.3-.1-132.8-1.8-.3-.9-9.6-40.4-20.6-87.7-11.1-47.3-20.8-88.4-21.7-91.4-3.4-11.9-14.3-25-24.9-30.1-9.8-4.6-13.1-5-44.9-5-29.4 0-30.1.1-35.1 2.4z" fill="#272424"/></symbol><symbol id="icon-bath" viewBox="0 0 512 362"><path d="M409 3.1c-14.4 2.8-26.6 14.6-30.4 29.4-1.9 6.9-2.1 24.2-.5 27.8 2.5 5.5 11.2 6.7 15.4 2.1 2.3-2.5 2.5-3.5 2.5-11.8 0-5 .5-10.7 1-12.7 3.2-11.6 14.4-18.5 25.8-15.9 6.8 1.5 14.4 8.4 16.1 14.5.7 2.6 1.1 18.9 1.1 46.7V126h-6.8l-.3-8.5c-.4-7.5-.7-8.7-2.9-10.9-3.9-3.8-9.8-3.9-13.5-.1-2.3 2.2-2.5 3.2-2.5 10.9v8.6l-195.7.2-195.8.3-5.5 2.6C5.7 134.4 0 143.4 0 156c0 5.4.6 8.8 2.1 12 4.3 9.5 14.8 17 23.9 17h4.5l2.8 14.5C39 229 50.2 262 61.1 281.7c8.2 14.6 20.9 30.8 30.1 38.3l5.5 4.5.5 11.1c.3 8.7.8 11.8 2.4 14.5 2.9 5 9 8.8 15.1 9.5 7 .9 11.3-1.4 23.3-12.1l9.4-8.5h217.2l9.4 8.6c5.2 4.7 11.5 9.5 13.9 10.6 6 2.8 12.8 2.1 18.4-1.8 6.7-4.7 8-8 8.5-20.8l.5-11.1 5.5-4.5c9.2-7.5 21.9-23.7 30.1-38.3 10.9-19.7 22.1-52.7 27.8-82.2l2.8-14.5h4.5c9.1-.1 19.1-7.1 23.6-16.5 3.3-7 3.3-17.9 0-25-3.9-8.3-11.6-14.5-20.3-16.3l-3.8-.8-.3-8.6c-.2-7.5-.6-8.9-2.7-11.2-4.2-4.6-12.9-3.4-15.4 2.1-.6 1.3-1.1 5.7-1.1 9.8v7.5h-6.9l-.3-46.8-.3-46.7-3.2-6.8C447 8.2 428.7-.8 409 3.1zm81.1 146c4.1 4.4 4 9.6-.2 13.8-2.8 2.9-3.5 3.1-10.3 3.1-12.6 0-15.7 2.4-17 13-4.8 37.8-20.6 83.2-37.4 106.9-4.5 6.4-16.5 19-25 26.2l-4.2 3.6v12.1c0 6.7-.3 12.2-.6 12.2-.4 0-5-4-10.3-8.9-5.3-4.8-10.6-9.3-11.8-10-3.1-1.6-231.5-1.6-234.6 0-1.2.7-6.5 5.2-11.8 10-5.3 4.9-9.9 8.9-10.3 8.9-.3 0-.6-5.5-.6-12.2v-12.1l-4.2-3.6c-8.5-7.2-20.5-19.8-25-26.2C70 262.2 54.2 216.8 49.4 179c-1.3-10.6-4.4-13-17-13-6.8 0-7.5-.2-10.3-3.1-4.2-4.2-4.3-9.4-.2-13.8l2.9-3.1h462.4l2.9 3.1z"/></symbol><symbol id="icon-bed" viewBox="0 0 512 425"><path d="M49.2 1.5C42.7 4.3 43 .2 43 102.2v92.3l-7.7 6c-15.9 12.5-29.4 32.6-32.8 49C1.1 256.3.8 285.9 1 396.8v21.4l2.9 2.9c4.1 4.1 10.1 4.1 14.2 0l2.9-2.9V384h470v15.4c0 16.5.8 20.6 4.5 23 2.8 1.8 8.7 2.1 11.6.6 5-2.7 4.9-1.1 4.9-86.5 0-89.7.2-87-7.5-103-5.8-12-15.2-23.5-26.4-32.5l-9.1-7.3v-92.8c.1-57.3-.3-93.5-.9-94.6-.5-1-1.9-2.7-3.1-3.8-2.2-2-4.2-2-207.4-2.2C81.4.1 52 .3 49.2 1.5zm399.6 100.2c.1 48.6-.2 80.3-.7 80.3-.5 0-5.6-1.6-11.3-3.5-5.7-1.9-15-4.2-20.8-5.3l-10.5-1.8-.5-30c-.6-34-.6-34-9.2-42.7-9-9-16.7-10.9-31.6-7.8-14.4 3-30 2.8-45.7-.4-16.8-3.5-23.3-1.9-32.5 8.2-7.6 8.3-8 10.5-8 44V171h-42.9l-.3-28.8c-.3-27.7-.4-28.9-2.7-33.9-2.7-6.1-10.3-13.6-16.4-16.3-7.2-3.2-11.4-3.4-22.6-1-9.1 2-12.3 2.2-25 1.7-9.1-.3-16.9-1.2-20.6-2.3-13-3.6-23.8-1.1-31.6 7.3-8.2 8.9-8.4 9.8-8.7 43.8l-.3 30.1-10.2 1.7c-5.6 1-15.3 3.5-21.4 5.6L64 182.7V21l192.3.2 192.2.3.3 80.2zm-303.3 9.8c11.3 2.6 35.1 3.1 46.5 1 15.6-2.9 17.3-3 19.5-.5 1.9 2.1 2 3.9 2.3 30.6l.3 28.4h-86.2l.3-29.3c.3-33 .4-33.3 6.8-32.4 1.9.3 6.7 1.3 10.5 2.2zm175 .4c13.3 2.5 30.6 2.7 42 .5 15.3-2.8 17.8-2.9 20-.4 1.9 2.1 2 3.6 2 30.4v28.1l-42.7.3-42.8.2v-29.1c0-19.2.4-29.7 1.1-31.1 1.2-2.3 1.7-2.3 20.4 1.1zm90 81.1c13.7 2 35.4 8.8 39.5 12.5.8.7 3.9 2.6 6.8 4.1 9.6 5.2 21.2 16.6 26.6 26.1 2.5 4.3 5.8 12.8 7 17.5l.6 2.8H22l.6-2.8c2.4-10 6.8-18.8 13.3-26.7 4.9-5.9 14.6-14.3 19.1-16.4 1.9-.9 4.9-2.6 6.6-3.8 6.7-4.8 26-11.2 39.9-13.2 8.6-1.2 300.2-1.3 309-.1zM491 320v43l-234.7-.2-234.8-.3-.3-41.5c-.1-22.8 0-42.1.3-42.7.3-1 48.2-1.3 235-1.3H491v43z"/></symbol><symbol id="icon-cart-2" viewBox="0 0 506 475"><path d="M22.9 4.9C9.7 7.6 1.2 18.9 2.2 32.3 3.1 42.7 8 49.8 17 53.9c4 1.9 6.6 2.1 25 2.1 11.3 0 21 .4 21.6.8.6.4 1.4 2.9 1.8 5.7.4 2.7 1.6 9.9 2.7 16 1 6 5.9 35.5 10.9 65.5 4.9 30 9.4 57 10 60 1.2 6.5 12.5 74.4 14.5 87.5 4.2 26.4 9.6 56.6 10.9 60.3 2.2 6.2 6.3 10.8 12.7 14.2l5.7 3h149.3c148.2 0 149.4-.1 153.9-2.1 9.4-4.2 14.1-11.1 14.8-21.5.6-9-.8-13-6.4-19.3-8.4-9.4 5.4-8.6-148.5-8.9l-135.5-.2-1.7-11.3c-.9-6.2-1.7-12-1.7-13 0-1.6 8.3-1.7 149.5-1.7 146.9 0 149.5 0 154.8-2 9.4-3.5 14.8-11.3 16.6-24.1.6-4 2.2-15.3 3.6-24.9 1.3-9.6 3.6-25.6 5.1-35.5 1.4-9.9 3.6-25.4 4.9-34.5 12.9-88.4 13.1-90.6 9.7-98.1-2.4-5.4-10-12.5-15.1-13.9-2.3-.6-66.7-1-185.8-1-106.6 0-182.4-.4-182.7-.9-.3-.5-1.7-7.6-3.1-15.7-1.4-8.2-3-16.5-3.6-18.4-2-6-7-11.8-12.9-14.7l-5.5-2.8-33-.2c-18.1-.1-34.6.2-36.6.6zm193.9 129.9l.2 26.2-41.2-.2-41.3-.3-4.2-25c-2.3-13.8-4-25.6-3.8-26.3.4-1 9.9-1.2 45.2-1l44.8.3.3 26.3zm104-.1l.2 26.3h-78v-25.8c0-14.2.3-26.2.7-26.5.4-.4 17.8-.6 38.7-.5l38.1.3.3 26.2zM447 111.8c0 2.1-.4 6.3-1 9.3-.5 3-1.9 12.1-3 20.4-1.2 8.2-2.4 16-2.7 17.2l-.5 2.3H347v-25.8c0-14.2.3-26.2.7-26.5.3-.4 22.8-.7 50-.7H447v3.8zM217 213v26l-34.7-.2-34.8-.3-4.2-25c-2.3-13.8-4.2-25.3-4.3-25.8 0-.4 17.6-.7 39-.7h39v26zm104 0v26h-78v-52h78v26zm115-24.4c0 1.7-4.4 33.3-6.1 43.6l-1.1 6.8H347v-52h44.5c39.7 0 44.5.2 44.5 1.6zM166.5 397.4c-6.1 1.9-10.3 4.4-15.2 8.9-14.9 13.7-16.5 36.9-3.6 53.2 6.5 8.3 18.5 13.8 30.2 13.7 22.1-.1 38.6-16.9 38.4-39.2-.2-16.9-11-31.7-26.8-36.5-6-1.8-17.5-1.8-23-.1zM401 397.4c-10 2.8-18.5 10.4-23.8 21.4-3.1 6.6-3.5 8.2-3.4 15.5 0 13.2 4.9 23.1 15.2 31.3 11.2 8.9 29 10.1 42.8 3 5-2.6 12.4-10.8 15.7-17.2 2.8-5.5 3-6.7 3-16.9 0-10.5-.1-11.3-3.2-17-1.8-3.3-4.5-7.4-6-9.1-3.9-4.4-12.9-9.9-18.5-11.2-5.9-1.5-16-1.4-21.8.2z"/></symbol><symbol id="icon-clip" viewBox="-132 -16 533 533.333"><path d="M163.484 0C109.45 0 65.488 42.637 65.488 95.043v229.059c0 32.964 27.578 59.785 61.532 59.785 33.902 0 61.484-26.82 61.484-59.785V207.777c0-6.902-5.598-12.5-12.5-12.5s-12.5 5.598-12.5 12.5v116.325c0 19.18-16.367 34.785-36.535 34.785-20.117 0-36.48-15.606-36.48-34.785V95.043c0-38.621 32.75-70.043 72.995-70.043 40.25 0 73 31.422 73 70.043v274.68C236.492 427.773 187.367 475 126.992 475 66.622 475 17.5 427.773 17.5 369.723V207.777c0-6.902-5.598-12.5-12.5-12.5-6.906 0-12.5 5.598-12.5 12.5v161.946C-7.5 441.559 52.832 500 126.992 500s134.5-58.441 134.5-130.277V95.043C261.492 42.637 217.523 0 163.484 0zm0 0"/></symbol><symbol id="icon-closet" viewBox="0 0 620 620"><path d="M6.3 1C5 1.5 3.1 3.4 2 5.2.2 8.2 0 10.3 0 30c0 29.4.4 30 19.6 30H30v500H19.6c-12.2 0-14.9.8-17.6 5.2-1.8 3-2 5.1-2 24.8 0 19.7.2 21.8 2 24.8 1.1 1.8 3.2 3.7 4.6 4.2 3.5 1.4 603.3 1.4 606.8 0 1.4-.5 3.5-2.4 4.6-4.2 1.8-3 2-5.1 2-24.6 0-29.3-.6-30.2-19.5-30.2H590V60h10.4c12.2 0 14.9-.8 17.6-5.2 1.8-3 2-5.1 2-24.8 0-19.7-.2-21.8-2-24.8-1.1-1.8-3.2-3.7-4.6-4.2C610.1-.3 9.4-.2 6.3 1zM600 30v10H20V20h580v10zM210 310v250H50V60h160v250zm180 0v250H230V60h160v250zm180 0v250H410V60h160v250zm30 280v10H20v-20h580v10z"/><path d="M175.2 282c-1.8 1.1-3.7 3.2-4.2 4.6-1.5 3.9-1.3 44.3.3 47.4.7 1.4 2.9 3.4 4.8 4.4 3.2 1.7 4 1.8 6.9.6 6.4-2.7 7-4.9 7-28.8 0-23.5-.5-25.9-6-28.7-3.8-2-4.8-1.9-8.8.5zM255.2 282c-1.8 1.1-3.7 3.2-4.2 4.6-1.5 3.9-1.3 44.3.3 47.4.7 1.4 2.9 3.4 4.8 4.4 3.2 1.7 4 1.8 6.9.6 6.4-2.7 7-4.9 7-28.8 0-23.5-.5-25.9-6-28.7-3.8-2-4.8-1.9-8.8.5zM435.8 81.6c-6.2 3.3-5.8-9.5-5.8 183.4 0 155.5.2 176.4 1.5 179 3.1 6.1 2.5 6 58.4 6 30.7 0 52-.4 53.5-1 1.4-.5 3.5-2.4 4.6-4.2 2-3.3 2-5.2 2-179.8 0-174.6 0-176.5-2-179.8-1.1-1.8-3.2-3.7-4.6-4.2-1.5-.6-22.8-1-53.7-1-43.3.1-51.6.3-53.9 1.6zM530 265v165h-80V100h80v165z"/><path d="M486.5 180.9c-1.1.5-7.3 6.3-13.7 12.8-12.4 12.4-14.1 15.4-11.6 20.2 1.9 3.6 7.2 6.5 10.6 5.6 3.3-.8 25.6-22.6 27.3-26.6 1.3-3.3.1-7.5-3-10.3-2.2-2-7-2.8-9.6-1.7zM506.5 211.1c-3.2 1.8-43.5 42.1-45.1 45.2-4 7.5 4.8 16.3 12.2 12.3 1.6-.8 12.5-11.1 24.1-22.8 23.2-23.2 24.1-24.6 20.3-30.6-2.8-4.6-7.5-6.2-11.5-4.1zM435.8 471.6c-5.5 2.9-5.8 4.9-5.8 33.4 0 28.7.3 30.6 6 33.5 4.4 2.3 103.6 2.3 108 0 5.7-2.9 6-4.8 6-33.5s-.3-30.6-6-33.5c-4.3-2.2-104.1-2.2-108.2.1zM530 505v15h-80v-30h80v15z"/></symbol><symbol id="icon-decoration" viewBox="0 0 512 389"><path d="M2.6 5.1L0 7.1v375.8l2.6 2 2.7 2.1h501.4l2.7-2.1 2.6-2V7.1l-2.6-2-2.7-2.1H5.3L2.6 5.1zM472.5 31l-12 12h-409l-12-12-12-12h457l-12 12zM40 195v140.5l-12 12-12 12v-329l12 12 12 12V195zm456 .2v164.3l-12-12-12-12v-281l11.7-11.7c6.5-6.5 11.9-11.8 12-11.8.2 0 .3 73.9.3 164.2zm-40-64.3v71.9l-12.7.6c-40.6 2.1-63.3 5.6-99.7 15.2l-16.9 4.5-24.6-24.4c-14.3-14.1-26.5-25.4-29.2-26.9-17.4-9.6-37.5-8.8-52.8 2.1l-3.3 2.4-21.2-21.1c-11.6-11.6-22.9-22-25.1-23.1-4.9-2.6-14.8-2.8-20.3-.6-2.5 1.1-17.9 15.8-48.9 46.8L56 223.5V59h400v71.9zm-271.8 35.8l20.8 20.8-16.1 16.1-16.1 16.1-22.6.1c-23.4 0-45.1 2-66.1 6.1l-9.3 1.8 40.8-40.8c38.1-38.1 41.1-40.9 44.3-40.9 3.2 0 5.3 1.8 24.3 20.7zm77.1 17.6c4.8 2.2 9.7 6.5 26.3 22.9 11.2 11.1 20.2 20.3 20 20.5-1 1-27.2 5.3-38.8 6.4-14.4 1.3-13.4 1.4-32.3-3.4-7.7-2-19.4-4.5-26-5.7-6.6-1.2-13.1-2.4-14.4-2.6-2.2-.5-1.2-1.8 11.5-14.5 17.7-17.8 22.2-21.6 29.2-24.6 7.6-3.2 16.3-2.8 24.5 1zM456 275v56H56v-81.9l3.8-1c31.8-8.6 60.4-12.4 91.2-12.4 39.5 0 66.9 5.1 119.5 21.9 43 13.8 52.1 16 67.8 17.1 8.2.6 8.9.5 11.2-1.7 3-2.8 3.3-7.8.7-11-1.4-1.8-3.4-2.3-10.2-3.1-11.6-1.3-21.1-3.3-35.9-7.6l-12.5-3.7 13-2.7c7.1-1.5 23.3-5.4 35.9-8.7 44.3-11.7 72.9-16.1 109.8-17.1l5.7-.1v56zm16.5 84l12 12h-457l12-12 12-12h409l12 12z"/><path d="M357.5 100.6c-7.3 2.6-13.7 8.3-17.5 15.8-3.1 6.1-3.5 7.7-3.4 14.5.1 12.9 6.7 23.6 17.8 28.7 26.4 12.2 53.6-12.9 43.5-40.3-5.7-15.4-24.8-24.3-40.4-18.7zm19.3 17.1c5.1 3.8 6.7 7 6.7 13.3 0 7.1-2.1 10.5-8.5 13.7-5.6 2.9-8.6 2.9-14 0-4.8-2.5-9-8.9-9-13.6 0-4.6 4.2-11.4 8.5-13.9 4.8-2.8 12.2-2.6 16.3.5z"/></symbol><symbol id="icon-delivery" viewBox="0 0 800 507"><path d="M72 2.5c-6 1.9-11.9 7.1-15 13.1l-2.5 4.9-.3 114c-.2 62.7 0 116.4.3 119.3.9 7.1 4.3 11.1 10.4 11.9 3.2.4 5.3.1 7.7-1.2 6.8-3.6 6.4 4 6.4-123.4V26l241.3.2 241.2.3.3 115.8c.2 105.5.4 116 1.9 118.3 3.3 5.1 10.6 6.8 16.3 3.9 4.6-2.4 6-6.2 6-16V240l79.8.2 79.7.3 5.5 2.6c7.6 3.6 15 10.6 18.8 17.7 1.8 3.3 3.2 6.3 3.2 6.6 0 .3-9 .6-20 .6-21.3 0-24.6.6-28.5 5-1.9 2.1-2 3.6-2 23.4 0 20.8 0 21.2 2.7 26.8 3.7 8 10.7 15.2 18.7 19.1 6.1 3 7.4 3.2 18.8 3.6l12.3.3V402h-32.5l-4.2-8.8c-9.5-19.6-26.8-34.6-47.8-41.2-10.8-3.4-30.3-3.9-41.5-1.1-24.4 6.2-44.9 23.4-54.1 45.6-2.1 5.1-2.5 5.5-5.6 5.5H586v-99l-3.2-3.5c-4.1-4.5-9-5.5-14.2-3-2 1-4.2 2.7-4.9 3.9-.9 1.5-1.3 15.4-1.7 51.6l-.5 49.5-129.8.3-129.8.2-2.5-5.7c-5.3-12-15.5-24.7-26.4-32.9-5.9-4.4-21.5-11.4-29.2-13-11.4-2.5-31-1.5-41.3 2-20.7 7.1-36.5 20.9-46.2 40.3l-4.6 9.3H79v-29h28.8c20.8 0 29.4-.4 31.1-1.3 4.1-2.1 6.6-6.4 6.6-11.4 0-3.9-.5-4.9-3.7-7.9L138 349H73.8c-61.6 0-64.4.1-67.4 1.9-6.3 3.8-6.9 13.3-1.3 18.7l3 2.9 22.8.3 22.8.3.5 16.9c.4 16.3.5 17.1 3.4 22.6A25.6 25.6 0 0075 425.9c3.1.7 18.4 1.1 38.9 1.1h33.8l.6 7.7c2.9 35.4 30 64.6 65.8 70.9 27.3 4.7 55.9-6.1 73.9-27.9 9.8-12 17.9-33.1 18-47V427h281.9l.6 5.7c2.4 21.8 9.5 37.3 23.5 51.1 32 31.6 83.1 30.2 113.6-3.1 12.5-13.7 20.3-32.3 20.4-48.5V427h21.3c18.5 0 21.7-.3 25.3-1.9 7.7-3.5 7.4.1 7.4-79 0-78.6 0-79.2-6.9-93.6-8.5-17.9-24.5-31.1-43.1-35.6-3-.7-5.7-1.4-5.9-1.5-.2-.2-4.9-18.8-10.6-41.4l-10.3-41.1 3-1.5c5.5-2.8 6.8-6.5 6.8-19.4 0-12.8-1.4-19.9-5.8-28.8-3.4-7.2-12.9-17.3-19.7-21.2-11.8-6.8-8.7-6.4-67.5-7l-53.5-.5L586 37c-.6-19.9-1.3-22.4-8-28.9-8-7.7 13.9-7.1-257.9-7-205.6 0-244.3.3-248.1 1.4zm619.1 78.7c8.9 4 16.9 14.9 16.9 23.1v3.7l-60.7-.2-60.8-.3-.3-12.9c-.1-7.2 0-13.6.3-14.3.4-1.1 9.3-1.3 50.7-1.1 44.2.3 50.7.5 53.9 2zm7.3 53.5c1.2 4.4 19.6 78.6 19.6 79.4 0 .5-26.9.9-66 .9h-66v-82h55.9c52.4 0 56 .1 56.5 1.7zM775 307v14h-9c-15.4 0-19-3.5-19-18.8V293h28v14zm-534.9 67.9c15.1 3.9 28.4 14.5 35.1 28.2 4.6 9.2 5.7 14.2 5.8 24.4 0 15.3-5.1 27.9-15.9 38.6-20.9 20.9-53.3 21.5-74.9 1.4-11.7-10.8-17.5-23.7-17.5-39 .1-16.6 4.6-27.8 15.8-39 8-8.1 14.3-11.8 24.7-14.5 9.4-2.4 17.6-2.5 26.9-.1zm441.7.4c10.3 3 18 7.7 25.2 15.3 21.1 22.6 19.3 57.7-4 78.1-24.7 21.6-63 16.4-80.9-11-5.7-8.8-8.2-16.5-8.8-27.2-1.5-25.8 15.3-48.8 40.7-55.6 9.2-2.5 18.2-2.4 27.8.4z"/><path d="M218.7 403.4c-4.5 1.7-9.9 5.6-12.5 9.3-2.5 3.5-5.2 11.5-5.2 15.1.1 4.1 3.3 12.5 6 15.9 7 8.6 19.6 11.7 29.8 7.3 13.6-5.8 19.3-22 12.4-35.1-5.9-11.3-18.8-16.6-30.5-12.5zM659.5 403.2c-10.2 3.8-16.5 12-17.3 22.7-.8 11.5 4.7 20.5 15.7 25.4 6.2 2.7 16.2 2 22.5-1.7 10.9-6.4 15.6-21.8 10-32.9-2.3-4.6-7.3-9.5-11.9-11.9-4.6-2.4-14.6-3.3-19-1.6zM423.5 122.1c-2 .6-21.6 19.5-59.7 57.6L307 236.5l-30.8-30.8-30.8-30.7h-4.3c-5 0-9.2 2.2-11.5 6-1.9 3.2-2.1 8.2-.5 11.3 1.6 3.1 68.8 70.5 72.1 72.3 3.4 1.8 8.2 1.8 11.6 0 2.9-1.6 121.9-120.5 124.6-124.6 3.9-5.9.9-14.7-6-17.6-3.7-1.6-3.8-1.6-7.9-.3zM35.4 296c-1.1.4-3.3 2.2-4.7 4-5.3 6.2-2.8 15.4 4.9 18.6 4.9 2.1 163.9 2.1 168.8 0 4.8-2 7.6-6.1 7.6-11-.1-5-1.7-8.1-5.6-10.7-2.8-1.8-5.5-1.9-85.9-1.8-45.6 0-83.9.4-85.1.9zM326.1 351.6c-1.7 1.4-3.6 4.2-4.2 6.3-1.5 4.9.7 10.3 5.3 13.1 3.2 2 4.8 2 99.8 2 74.6 0 97-.3 98.9-1.3 5.9-3 8.3-11.1 5.1-17.2-3.1-5.7 1.6-5.5-104.4-5.5h-97.4l-3.1 2.6z"/></symbol><symbol id="icon-discount" viewBox="0 0 464 460"><path d="M276 .7c-.8.2-11.1 5-22.7 10.5L232 21.3l-21.2-10.2C190.5 1.5 189.2 1 183 1c-7.2 0-13 2.2-17 6.3-1.4 1.4-8.3 10.4-15.5 20-11.7 15.8-13.3 17.5-16.5 18.1-1.9.3-12 .6-22.5.6-20.7 0-23.7.5-30.7 4.9-7.8 5-9.2 8.5-13.6 34.9-2.1 12.8-4.3 23.7-4.8 24.1-.5.5-9.4 5.5-19.9 11.1-20.2 11-25.2 14.8-28.5 21.7-3.6 7.7-2.9 12.6 5.6 36.8 4.1 12 7.3 22.2 7.1 22.9-.3.6-6.1 10-13 20.9C.5 244.1-1 247.8.5 255.7c1.3 7 4.4 11 21.4 27.5L39 299.8l-2.1 24.7c-2.4 29.3-2.1 31.2 6 38.9 5.3 4.9 4 4.4 33.5 12.5 9.8 2.8 18.1 5.2 18.4 5.5.3.3 4.4 9.9 9.2 21.3 9.3 22 12.4 26.9 19.1 30.4 7.2 3.6 11.6 3.4 34.8-1.5 11.8-2.5 22.3-4.6 23.3-4.6 1.1 0 6.6 3.7 12.1 8.3 25.5 20.9 26.6 21.6 32.4 23.3 4.8 1.4 6.5 1.5 11 .4 4.7-1 7.7-3 24.3-16.6 10.4-8.5 19.7-15.4 20.7-15.4s11.4 2 23.1 4.5c11.8 2.5 22.8 4.5 24.4 4.5 6.1 0 11.2-2.3 16.3-7.5 4.5-4.5 5.9-7.1 13.4-25.5 4.7-11.3 8.7-20.8 9.1-21.2.3-.5 9.6-3.3 20.5-6.3 27.1-7.5 26.3-7.2 31.6-12.2 8.1-7.6 8.4-9.6 5.9-38.8l-2.1-24.6 17.7-17.2c11.4-11.1 18.4-18.6 19.5-21.2 2.1-4.5 2.4-11.9.8-16.2-.6-1.5-6.7-11.7-13.6-22.6l-12.6-19.9 7.1-22.3c7.5-23.2 8.3-28.1 6-35.8-2-6.5-7.1-10.6-27.7-22.3-11.4-6.4-19.7-11.7-20.2-12.9-.4-1.1-2.4-11.8-4.4-23.9-3.6-22.3-4.7-26-9.4-30.9-5.9-6.5-8.3-7-35.3-8.1l-24.7-1.1-14.4-19.3c-8-10.6-15.6-20.1-17-21.2-5-3.9-14.6-6.1-19.7-4.3zm8.2 20c.9 1 8.6 11.2 17.2 22.8l15.6 21 27.6 1.1c15.1.6 28 1.6 28.5 2.1s3 13.1 5.5 27.9c3.2 19.3 4.9 27.2 6 28.1.9.6 11.7 6.9 24 13.9 16.8 9.6 22.4 13.3 22.4 14.7 0 1-3.6 13-8 26.6-4.4 13.6-8 25.3-8 26 0 .8 6.5 11.7 14.5 24.3 8 12.6 14.5 23.1 14.5 23.5 0 .3-9 9.4-20.1 20.2l-20 19.6 2.3 27.3c1.6 19.9 1.9 27.7 1.2 29-.8 1.1-9.3 3.9-26.7 8.7-14.1 3.9-26.1 7.5-26.6 8-.5.6-5.5 11.8-11 25-5.6 13.2-10.8 24.6-11.4 25.3-1.1 1-6.3.2-27.5-4.3-14.4-3-26.9-5.5-27.8-5.5-1.1 0-29.2 22-41.6 32.8-1 .8-2.7 1.2-4 .8-1.3-.3-11.5-8.1-22.7-17.2l-20.4-16.7-5.1 1c-2.8.5-14.5 2.9-26.1 5.3-12.8 2.7-22 4.1-23.6 3.7-2.3-.6-3.8-3.4-12.8-24.9-5.7-13.4-10.7-24.7-11.2-25.3-.5-.5-12.5-4.1-26.6-8-17-4.7-26-7.6-26.7-8.8-.7-1.1-.4-9.4 1.2-28.9l2.3-27.3-20-19.5C28 262.2 19 252.9 19 252.2c0-.6 6.5-11.4 14.5-24S48 204.6 48 203.7c0-.8-3.8-12.5-8.5-25.9-7.4-21.1-8.4-24.6-7.4-27 .9-2.1 6.1-5.4 24.6-15.4 12.9-7.1 23.7-13.3 24-14 .2-.6 2.3-12.7 4.7-26.8 3-18 4.8-26.2 5.9-27.4 1.5-1.4 5.4-1.7 28.6-2l26.9-.4 16.6-22.4c13-17.4 17.2-22.4 19-22.4 1.2 0 12.4 4.9 25 11 12.6 6 23.7 11 24.6 11 1 0 10.5-4.2 21.2-9.3 10.6-5.1 21.3-10.3 23.8-11.4 5.5-2.7 5.4-2.7 7.2-.6z"/><path d="M167 121.3c-9.7 2.7-18.2 10.7-22.2 20.6-2 5-2.2 7.7-2.6 26.9-.4 23.4.7 35.2 3.8 41.7 3.4 7 8.6 12.2 15.8 15.7 6 3 7.5 3.3 15.7 3.3 7.8 0 9.7-.4 14.7-2.8 7.1-3.5 14-11 16.9-18.5 2.1-5.1 2.3-7.8 2.7-27 .4-23.4-.7-35.2-3.8-41.7-5.5-11.4-16.5-18.5-29.3-19.1-4-.2-9.2.2-11.7.9zm18.8 22.6c5.7 4 6.5 8.2 6 33.3-.4 24.1-.8 26.3-6 30.1-1.4 1.1-4.8 2.2-7.5 2.4-6.5.6-11.1-2-14-7.7-2.1-4.1-2.3-5.7-2.3-23 0-21 1.1-30.3 3.7-33.2 4.5-5.1 14.3-6.1 20.1-1.9zM282.2 121.2c-3.3 4.2-119.2 216.3-118.8 217.4.7 1.9 16.9 2 18.4.2 3.3-4.1 120.2-216.3 119.8-217.4-.7-1.9-17.9-2-19.4-.2zM277 231.3c-9.7 2.7-18.2 10.7-22.2 20.6-2 5-2.2 7.7-2.6 26.9-.4 23.4.7 35.2 3.8 41.7 3.4 7 8.6 12.2 15.8 15.7 6 3 7.5 3.3 15.7 3.3 7.8 0 9.7-.4 14.7-2.8 7.1-3.5 14-11 16.9-18.5 2.1-5.1 2.3-7.8 2.7-27 .4-23.4-.7-35.2-3.8-41.7-5.5-11.4-16.5-18.5-29.3-19.1-4-.2-9.2.2-11.7.9zm18.8 22.6c5.7 4 6.5 8.2 6 33.3-.4 24.1-.8 26.3-6 30.1-1.4 1.1-4.8 2.2-7.5 2.4-6.5.6-11.1-2-14-7.7-2.1-4.1-2.3-5.7-2.3-23 0-21 1.1-30.3 3.7-33.2 4.5-5.1 14.3-6.1 20.1-1.9z"/></symbol><symbol id="icon-email" viewBox="0 0 512 342"><g fill="#fff"><path d="M34 1.4C17.5 5 4.4 18 1 34.3.3 37.9 0 80.4.2 174l.3 134.5 2.4 5.8c4.4 11.1 14.3 20.7 25.8 25l5.8 2.2 217.5.3c151.7.2 219.4-.1 223.8-.8 12.5-2.1 23.6-9.6 29.9-20.1 6.7-11.1 6.4-3.4 6.1-152.5l-.3-134.9-2.4-5.8c-4.4-11.1-14.3-20.7-25.8-25L477.5.5l-219-.2C91.2.2 38.2.4 34 1.4zm447.2 24.1c2.3 1.7 5.4 5.1 6.8 7.5l2.5 4.5v267L488 309c-1.4 2.4-4.5 5.8-6.8 7.5l-4.4 3-218.6.3c-153.2.2-219.8 0-222.4-.8-4.9-1.4-9.4-5.3-12.1-10.4l-2.2-4.1v-267l2.2-4c2.6-4.9 5.7-7.9 10.3-9.9 3.1-1.4 28.6-1.5 223.2-1.3l219.6.2 4.4 3z"/><path d="M69.3 87.2c-5.5 2.7-6.7 12.2-2 16.5 3.8 3.5 187.1 121.7 188.7 121.7 1.6 0 184.9-118.2 188.7-121.7 3.2-2.9 4-8.2 1.8-12.2-1.9-3.7-5.2-5.5-9.7-5.5-3.3 0-4.2.6-117 73.6L256 200.9l-64.2-41.6C75.4 84 78.6 86 74.9 86.1c-1.9 0-4.4.5-5.6 1.1zM156.3 193c-3.4 1.4-97.9 64.7-100.2 67.1-2.9 3.2-3.5 7.2-1.6 11.3 2 4.1 7.4 7.1 11.3 6.1 2.9-.7 101-66 102.9-68.4 3.7-4.9 1.6-12.8-4.2-15.5-3.7-1.8-5-1.9-8.2-.6zM347.3 193.6c-5.6 2.8-7.7 10.7-4 15.5 1.9 2.4 100 67.7 102.9 68.4 3.9 1 9.3-2 11.3-6.1 2-4.2 1.3-8.3-2-11.6-4.3-4.3-98.9-66.8-102-67.3-1.8-.3-4.3.1-6.2 1.1z"/></g></symbol><symbol id="icon-facebook" viewBox="0 0 30 30">
<path d="M17.4185 29.8047C17.2935 29.8251 17.1681 29.8439 17.0422 29.8611C17.1681 29.8439 17.2935 29.8251 17.4185 29.8047Z" fill="#ffffff"/>
<path d="M17.7188 29.7535C17.659 29.7645 17.5993 29.7745 17.5396 29.7848C17.5993 29.7745 17.659 29.7645 17.7188 29.7535Z" fill="#ffffff"/>
<path d="M16.7072 29.9027C16.5609 29.9192 16.4137 29.9338 16.2661 29.9462C16.4137 29.9338 16.5609 29.9192 16.7072 29.9027Z" fill="#ffffff"/>
<path d="M16.9954 29.8675C16.9252 29.8769 16.8544 29.8856 16.7839 29.8938C16.8544 29.8856 16.9252 29.8769 16.9954 29.8675Z" fill="#ffffff"/>
<path d="M18.1269 29.6725C18.0742 29.6837 18.0214 29.6949 17.9685 29.7057C18.0214 29.6949 18.0742 29.6837 18.1269 29.6725Z" fill="#ffffff"/>
<path d="M19.1404 29.4207C19.0978 29.4328 19.0553 29.4443 19.0127 29.4562C19.0553 29.4443 19.0978 29.4328 19.1404 29.4207Z" fill="#ffffff"/>
<path d="M18.834 29.5045C18.7878 29.5166 18.7413 29.5289 18.6948 29.5406C18.7413 29.5289 18.7878 29.5168 18.834 29.5045Z" fill="#ffffff"/>
<path d="M18.433 29.6047C18.384 29.6162 18.3346 29.6269 18.2852 29.6379C18.3346 29.6269 18.384 29.6162 18.433 29.6047Z" fill="#ffffff"/>
<path d="M16.2613 29.9467C16.1823 29.9533 16.1034 29.9592 16.0242 29.9645C16.1034 29.9592 16.1823 29.9533 16.2613 29.9467Z" fill="#ffffff"/>
<path d="M30 15C30 6.717 23.283 0 15 0C6.717 0 0 6.717 0 15C0 23.283 6.717 30 15 30C15.0881 30 15.1758 29.9982 15.2637 29.9966V18.3197H12.041V14.564H15.2637V11.8002C15.2637 8.59497 17.2204 6.85043 20.0796 6.85043C21.4487 6.85043 22.6257 6.95251 22.9688 6.99806V10.348H20.9972C19.4417 10.348 19.1405 11.0873 19.1405 12.1719V14.564H22.8598L22.375 18.3197H19.1405V29.4205C25.4102 27.6231 30 21.8468 30 15Z" fill="#ffffff"/>
<path d="M15.9911 29.9666C15.835 29.9766 15.6782 29.9846 15.521 29.9899C15.6782 29.9846 15.835 29.9766 15.9911 29.9666Z" fill="#ffffff"/>
<path d="M15.5129 29.9904C15.4301 29.9931 15.347 29.9952 15.2639 29.9965C15.347 29.9952 15.4301 29.9931 15.5129 29.9904Z" fill="#ffffff"/>
</symbol><symbol id="icon-fav-active" viewBox="0 0 24 22">
<path d="M12 3.43498C10.011 -1.96402 0 -1.16202 0 7.00298C0 11.071 3.06 16.484 12 22C20.94 16.484 24 11.071 24 7.00298C24 -1.11502 14 -1.99602 12 3.43498Z" fill="#ed4956"/>
</symbol><symbol id="icon-fav" viewBox="0 0 26 22">
<path d="M12.9593 8.22892C13.198 7.10892 14.5378 1.99992 18.4511 1.99992C20.7164 1.99992 23.1633 3.55092 23.1633 7.00292C23.1633 10.9099 19.4623 15.4729 12.9593 19.6319C6.45619 15.4729 2.75517 10.9099 2.75517 7.00292C2.75517 3.51892 5.17252 1.99792 7.42558 1.99792C11.4286 1.99792 12.6756 7.12392 12.9593 8.22892ZM0.714355 7.00292C0.714355 11.0709 3.8368 16.4839 12.9593 21.9999C22.0817 16.4839 25.2042 11.0709 25.2042 7.00292C25.2042 -0.959077 15.3593 -2.02508 12.9593 3.26592C10.5735 -1.99608 0.714355 -1.00408 0.714355 7.00292Z"/>
</symbol><symbol id="icon-instagram" viewBox="0 0 30 30">
<g clip-path="url(#clip0)">
<path d="M15.0049 7.29749C10.7511 7.29749 7.30737 10.745 7.30737 14.995C7.30737 19.2487 10.7549 22.6925 15.0049 22.6925C19.2586 22.6925 22.7024 19.245 22.7024 14.995C22.7024 10.7412 19.2549 7.29749 15.0049 7.29749ZM15.0049 19.9912C12.2436 19.9912 10.0086 17.755 10.0086 14.995C10.0086 12.235 12.2449 9.99874 15.0049 9.99874C17.7649 9.99874 20.0011 12.235 20.0011 14.995C20.0024 17.755 17.7661 19.9912 15.0049 19.9912Z" fill="#ffffff"/>
<path d="M21.1848 0.0955151C18.4248 -0.0332349 11.5885 -0.0269849 8.82605 0.0955151C6.39855 0.209265 4.2573 0.795515 2.53105 2.52177C-0.353954 5.40677 0.0147958 9.29427 0.0147958 14.9955C0.0147958 20.8305 -0.310204 24.628 2.53105 27.4693C5.4273 30.3643 9.37104 29.9855 15.0048 29.9855C20.7848 29.9855 22.7798 29.9893 24.8235 29.198C27.6023 28.1193 29.6998 25.6355 29.9048 21.1743C30.0348 18.413 30.0273 11.578 29.9048 8.81552C29.6573 3.54927 26.831 0.355515 21.1848 0.0955151ZM25.5535 25.5605C23.6623 27.4518 21.0385 27.283 14.9685 27.283C8.71854 27.283 6.2123 27.3755 4.38355 25.5418C2.2773 23.4455 2.65855 20.0793 2.65855 14.9755C2.65855 8.06927 1.9498 3.09552 8.88105 2.74051C10.4735 2.68427 10.9423 2.66552 14.951 2.66552L15.0073 2.70302C21.6685 2.70302 26.8948 2.00551 27.2085 8.93552C27.2798 10.5168 27.296 10.9918 27.296 14.9943C27.2948 21.1718 27.4123 23.693 25.5535 25.5605Z" fill="#ffffff"/>
<path d="M23.0075 8.79251C24.0009 8.79251 24.8062 7.98718 24.8062 6.99376C24.8062 6.00033 24.0009 5.19501 23.0075 5.19501C22.0141 5.19501 21.2087 6.00033 21.2087 6.99376C21.2087 7.98718 22.0141 8.79251 23.0075 8.79251Z" fill="#ffffff"/>
</g>

</symbol><symbol id="icon-kitchen" viewBox="0 0 60 59"><path d="M1 1.9C-.4 4.6-.4 4.5 3 8.4c2.8 3.1 2.9 3.7 1.8 5.6-1.1 1.8-1.1 2.3.2 3.3.8.7 2.3 2.2 3.4 3.4 1.8 2.2 1.8 2.2-2.2 7-5.1 6-6.7 11.7-5.1 17.5C2.6 51 5.4 54.7 10 57c7.5 3.8 16.3 2 23.2-4.7l3.6-3.5 3.7 3.6c3.4 3.4 3.8 3.6 5.4 2.2 1.6-1.5 2-1.3 4.6 1.4 3.3 3.4 7 3.9 8.5 1.1 1.5-2.9 1.3-3.6-2.1-6.9-2.7-2.6-2.9-3.2-1.8-5.1 1.2-1.8 1-2.4-2-5.5l-3.4-3.5 3.7-4.2c6.7-7.4 8.1-13.9 4.7-21.5-2.8-6.1-8-9.7-15-10.2-6.8-.5-10.9 1.2-15.9 6.7L24 10.4l-4-3.9c-3.7-3.6-4-3.8-5.8-2.2-1.7 1.6-2 1.5-4.7-1.3C6.2-.4 2.5-.9 1 1.9zm6.9 3.5c3.1 3.3 1.7 5.5-1.5 2.5C4.1 5.7 3.2 3 4.8 3c.5 0 1.9 1.1 3.1 2.4zM50 5.2c7.5 5.2 8.9 14.3 3.4 22.1-5.3 7.4-5.2 7.4-16.9-4.3L26 12.6l2.8-2.9C35.4 2.6 43.6.9 50 5.2zM34.8 25.3L53 43.6l-4.3 4.2-4.2 4.2L26 33.5 7.6 15l3.9-4c2.1-2.2 4.2-4 4.5-4 .3 0 8.7 8.2 18.8 18.3zM34 46.9c0 1.1-4 4.6-8 7-4.5 2.7-10.5 2.7-15 0-4.4-2.7-5.7-4.4-7-9.2-1.5-5.3.1-10.2 5.2-15.4l4.2-4.2 10.3 10.5C29.4 41.4 34 46.5 34 46.9zm23 8.3c0 1.6-2.7.7-4.9-1.6-3.4-3.6-1.6-5.4 2-2 1.6 1.5 2.9 3.1 2.9 3.6z"/><path d="M11 14.9c0 .5 7.5 8.3 16.7 17.4 10.9 10.8 17.1 16.3 17.8 15.6.6-.6-4.8-6.7-15.5-17.4-14.9-14.9-19-18.3-19-15.6z"/></symbol><symbol id="icon-lamp" viewBox="0 0 518 424"><path d="M254.4 5.8c-1.2.2-3.2 1.4-4.5 2.8l-2.4 2.6-.3 66.1-.3 66.2-121.8 78.3C29.7 283.1 2.9 300.8 2 302.9c-1.5 3.6-.4 7.6 2.7 10.1 2.5 2 4.3 2 70.3 2h67.8l.6 5.8c1.8 15.2 8.8 33.9 18 48.1 5.6 8.7 18.7 22.5 27.5 29 40.5 30 95.7 30 136.2 0 8.8-6.5 21.9-20.3 27.5-29 9.2-14.1 16.2-32.9 18-48.2l.6-5.7H439c66.4 0 67.8 0 70.3-2 3.2-2.6 4.3-7 2.5-10.5-1-1.8-39.4-27-123.9-81.3l-122.4-78.7L265 77c-.4-49.2-.8-66-1.7-67.6-1.4-2.4-5.7-4.2-8.9-3.6zm110.7 221.4c59.3 38.1 107.9 69.6 107.9 70 0 .5-97.2.8-216 .8s-216-.3-216-.8c0-.6 214.8-139.1 215.9-139.2.2 0 48.9 31.2 108.2 69.2zm-34.2 92.5c-6.2 33.3-33.9 58.2-67.9 61-8.3.6-10 1.5-10 4.9 0 3.8 2.8 4.6 12.8 3.4 37.7-4.2 68.3-33 73.7-69.3l.7-4.7h13.7l-.6 3.7c-5.2 36-29.2 66-62.5 78.2-12.7 4.7-17.8 5.5-33.8 5.5-16 0-21.1-.8-33.8-5.5-33.3-12.2-57.3-42.3-62.5-78.2l-.6-3.7h171.6l-.8 4.7z"/><path d="M175.5 226c-59.1 38-79.1 51.4-79.3 53-.5 2.8 1.7 5.3 4.3 4.8 1.8-.4 149.3-94.6 157.3-100.5 2.5-1.9 3.2-3.1 3-5.1-.8-6.6-1.5-6.2-85.3 47.8z"/></symbol><symbol id="icon-map" viewBox="0 0 308 512"><g fill="#fff"><path d="M137 1.1C85.4 6.9 39.6 39 16.7 85.5 5.2 108.9.8 128.3.9 156.6c0 20.5 1.3 34.1 5.2 57.1C19.4 292.5 60.6 386 121.8 476c19 28 23.6 33.7 28.2 35.1 5.7 1.7 11 0 14.8-4.9 5.7-7.2 22.9-31.9 31.9-45.7 62.8-96.7 101.6-194.4 109.3-276 1.6-15.9 1.6-42 .1-52-7.7-51.1-38.8-93.8-84.9-116.9C197.2 3.5 164.9-2 137 1.1zm38.4 26.5c40.2 7 73.8 31.8 92.3 68 10.8 21.1 15 41.5 13.9 68.4-2.9 77-36.8 170.6-96.9 267.5C173.1 450.1 155 477 154 477s-19.1-26.9-30.7-45.5c-60.2-97-94-190.4-96.9-267.5-1.1-26.9 3.1-47.3 13.9-68.4 18.3-35.9 51.9-60.8 91.7-68 10.5-1.9 32.5-1.9 43.4 0z"/><path d="M140.1 78c-7.6 1.6-14.3 4.1-22.6 8.3-6.2 3.2-10.1 6.2-17.6 13.7-8.1 8.1-10.2 10.9-14.2 19-6.1 12.4-8 20.7-8 34.5-.1 13.3 1.8 21.8 7.3 33.2 9.1 18.8 24.5 32.4 44.7 39.7 8.4 2.9 9.5 3.1 24.3 3.1s15.9-.2 24.3-3.1c20.2-7.3 35.6-20.9 44.7-39.7 5.5-11.4 7.4-19.9 7.3-33.2 0-13.8-1.9-22.1-8-34.5-4-8.1-6.1-10.9-14.2-19-10.5-10.4-19.1-15.8-32.6-20-7.9-2.5-27.7-3.6-35.4-2zm29.7 27.2c20.7 6.6 35.2 26.7 35.2 49 0 29.8-28.6 54.4-58 49.9-34.3-5.3-54-42.2-38.8-72.6 11.7-23.3 37-34.2 61.6-26.3z"/></g></symbol><symbol id="icon-phone" viewBox="0 0 512 512"><path d="M96 .6C68.3 5.9 26.8 39.7 9.6 71.1 1.5 85.8-.3 95.6 1.1 117.3 5.7 191 42.5 270.7 106.4 346c12.3 14.5 48.6 50.5 63.1 62.6 72.9 61 146.5 95.3 219.4 102.4 21.2 2.1 30 1.2 43.5-4.3 13.2-5.4 24.6-13.6 39.2-28.1 15.1-15.1 24.1-26.8 31.2-40.5 6.7-12.9 8.6-19.1 8.6-28.1.1-6.8-.2-8.1-3.8-14.7-7.1-13.4-20.8-28.1-45.1-48.4-26.5-22.1-57.9-42.2-76.4-48.9-15.3-5.6-24.4-4-35.4 6-7.7 7-12.2 13.1-25.1 33.5-12.4 19.6-20.5 30.8-24.1 33.1-2.5 1.6-2.9 1.5-15.8-4.9-52.7-26-113.3-86.6-139.5-139.5l-6.5-13.3 2-2.7c2.8-3.8 12.3-10.8 30.8-22.5 21.1-13.3 28.9-19.1 35.4-26.3 10.1-11.1 11.7-20.1 6.1-35.5-10.5-29.1-53-86.8-80.8-110C117.9 3.2 106.7-1.4 96 .6zm13.6 29c11.6 7.7 33 31.1 50.7 55.4 15.1 20.8 29.4 45 31.3 53.2 1.2 5.2-5.1 10.2-45.2 35.8-19.8 12.7-30.1 24.5-32 36.5-.8 5.4 2 13.6 10.1 29.5 24.6 48.2 73.2 100.7 124.2 134.1 13.2 8.6 38.5 21.3 45.3 22.8 9.8 2.1 19-1.7 29-11.8 6.6-6.8 10.3-12 27.6-39.1 5.4-8.5 12.2-17.9 15.1-20.9 4.5-4.7 5.5-5.3 8-4.7 12.5 3 49.7 26.9 75.5 48.5 12.9 10.8 26.8 24.9 32.5 32.8 4 5.7 4.5 6.9 4 10.3-1.3 10.2-13.9 30-29.1 45.7-11.3 11.8-19.9 18.5-30.6 23.9-7 3.5-8.3 3.8-17.9 4.2-36.3 1.5-86.5-12.2-132.7-36.2C155.4 387.2 53.6 262 31.1 149.2c-3.4-17.2-5.5-37.1-4.9-46.8.8-12.6 8.4-26.6 23-42 13.3-14 30.5-26.6 43.6-32 7.8-3.2 10.4-3 16.8 1.2z" fill="#fff"/></symbol><symbol id="icon-phone2" viewBox="0 0 236 198"><path d="M99.2 4c-1.8 1.1-4.1 3.4-5.2 5.2-1.9 3.1-2 5.1-2 34.4 0 30.6 0 31.2 2.3 34.4 2.7 4 8 7 12.4 7h3.2l.3 12.1c.4 17.7.5 17.7 17.1 1.1L140.5 85h41.4c39.4 0 41.7-.1 45.6-2 2.6-1.3 4.9-3.4 6.3-5.9 2.1-3.7 2.2-4.9 2.2-33.7 0-32.9-.2-34.4-6.3-38.8-2.5-1.9-4.5-2.1-17.7-2.4-14-.3-14.9-.2-15.9 1.7-.9 1.5-.7 2.3.5 3.5 1.2 1.3 4.1 1.6 14.5 1.6 12.5 0 13.1.1 15.4 2.5l2.5 2.4v29c0 15.9-.3 29.7-.6 30.6-1.7 4.3-4.1 4.5-48.5 4.5h-42.2l-10.3 10.2L117 98.4v-9c0-5.7-.4-9.4-1.2-10.2-.7-.7-3.6-1.2-6.5-1.2-4.4 0-5.9-.5-7.8-2.5L99 73.1V13.3l2.3-2.1C103.6 9 103.9 9 145.7 9c37 0 42.3-.2 43.7-1.6.9-.8 1.6-1.9 1.6-2.3 0-2.9-3.1-3.1-45.5-3.1-41.1 0-43.1.1-46.3 2z"/><path d="M18.9 24.7C11.8 32 8.5 36.2 6.3 41-6.3 67.7.7 101.8 25.8 136c7.4 10 26.8 29.1 36.8 36.3 22.5 16 44.1 23.8 65.6 23.8 17.6 0 28.7-4.5 42.2-16.9 9.3-8.5 12.1-12.9 11.1-17-.8-3.5-35.9-38.9-40.3-40.9-1.9-.7-4.3-1.1-5.5-.7-1.2.3-7.5 5.8-14 12.2l-11.8 11.7-6.4-3.4c-3.5-1.9-9.3-5.6-12.9-8.3-7.1-5.3-10.6-5.8-10.6-1.4 0 1.7 1.7 3.6 6 6.7 7.9 5.8 22 13.9 24.2 13.9.9 0 4.6-2.7 8-6l6.3-6 18.8 18.8 18.8 18.7-2.8 2.3c-15 12.2-43.6 12.4-69.3.5-33.6-15.6-64.8-49-77.4-82.6-7.8-20.7-7-42 1.9-57.3 1.4-2.4 3-4.6 3.6-5 1-.6 37.9 35.1 37.9 36.7 0 .4-2.7 3.5-6 6.9-3.3 3.4-6 6.7-6 7.2 0 1.5 9.7 18.1 13.9 23.7 7 9.4 14.1 16.2 16.5 15.9 3.9-.6 2.9-3.6-3.3-10.9-6.3-7.3-11.7-14.9-16.6-23.2l-2.8-4.8 12.2-12.3c17-17.3 17.6-14.6-7.7-39.8C31.3 9.9 33.1 10.4 18.9 24.7zm32.3 15C61 49.5 69 57.9 69 58.5c-.1.5-1.6 2.8-3.5 5l-3.5 4-19.1-19.2-19.2-19.1 3.4-3.6c1.8-2 4-3.6 4.9-3.6.8 0 9.5 8 19.2 17.7zm105.7 105.7c20.1 20.1 19.5 19 13.4 24.8l-2.9 2.8-18.9-19-18.9-19 3.9-4c2.1-2.2 4.2-4 4.5-4 .3 0 8.8 8.3 18.9 18.4zM174.4 40.4c-4.8 9.6-8.3 17.9-7.9 18.5.3.6 1.4 1.1 2.4 1.1 1.2 0 4-4.7 10-17.4 4.6-9.6 8-17.9 7.6-18.5-1.9-3.1-4-.2-12.1 16.3zM118.8 26.6c-4.8 2.6-5.2 9.7-.6 10.2 2 .2 2.8-.2 3.3-2 1.3-3.9 3.5-4.7 5.9-2.2 2.2 2.1.9 4.3-5.9 9.6-5.9 4.5-7.8 7.9-7.3 12.4l.3 2.9 10.1.3c8.4.2 10.3 0 10.7-1.3 1.4-3.4-.3-4.5-6.9-4.5-3.5 0-6.4-.4-6.4-1 0-.5 2.4-2.8 5.4-5 4.8-3.7 8.6-8.9 8.6-11.9 0-.5-.5-2.2-1.2-3.6-2.3-5.1-10.3-7-16-3.9zM144.2 36.7c-3.3 6.5-5.7 12.4-5.5 13 .3.9 2.6 1.3 6.4 1.3 5.5 0 5.9.1 5.9 2.4 0 3 2.2 4.9 5.2 4.4 1.8-.2 2.4-1 2.6-3.6.2-1.9.9-3.2 1.7-3.2 2.4 0 3-4.2.9-6-1.1-.9-2.4-2.5-3-3.5-1.4-2.6-5.4-2.6-6.8 0-1.2 2.1-2.8 3.6-3.4 3-.2-.1 1.5-4 3.8-8.5s3.9-8.8 3.6-9.6c-.3-.8-1.7-1.4-3.1-1.4-2.2 0-3.2 1.4-8.3 11.7zM191.4 26.4c-.3.8-.4 3.1-.2 5.2.3 3.6.5 3.9 3.3 3.9 2.3 0 3.1-.5 3.3-2.3.3-1.8 1-2.2 4.3-2.2 5.4 0 5.2 1.7-1.7 13.4-6.1 10.5-6.5 13.1-1.9 13.1 2.7 0 3.4-.8 8.2-10 6.2-11.7 7.8-16.4 6.9-19.9-.6-2.6-.7-2.6-11.2-2.6-8 0-10.6.3-11 1.4z"/></symbol><symbol id="icon-plant" viewBox="0 0 441 460"><path d="M85.7 1C64.1 3 40.9 7.2 19.6 13.1.3 18.4-.6 19.6 2.8 36.1 9 66.2 22.7 100.7 37.6 123c19.5 29.3 42 46.5 71 54.2 14.3 3.7 47 3 61.1-1.3 4.3-1.4 7.3-5.3 7.3-9.6 0-4.5-1.4-6.9-5.2-8.9-2.8-1.5-3.8-1.5-12.2.2-13.9 2.8-38.5 2.6-48.9-.4-29.2-8.4-50.9-30-69.7-69.5-9.8-20.5-19.8-53-16.8-54.8 2.1-1.3 29.3-7.6 40.3-9.3 26.4-4.1 55.6-4.5 72-1.1 33.9 7.1 56.8 29.7 63.1 62.3 2.3 12.2 1.7 27.9-1.6 40.1l-1.1 4.2-13.2-12.8C159.4 92.8 128 70.6 94.3 53c-10.5-5.5-14.5-6.3-18.7-4.1-4.4 2.4-6 9.6-3.1 13.8.8 1.2 5.9 4.5 11.3 7.4 63.6 34 106.2 72.8 121.3 110.4 4.7 11.7 5.9 20.3 5.9 41.1V240h-66c-49 0-66.6.3-68.5 1.2-5.3 2.4-5.5 4-5.5 38.8s.2 36.4 5.5 38.8c1.4.7 5.7 1.2 9.5 1.2h6.8l.8 3.3c.3 1.7 6.9 32 14.4 67.2 13.6 63.1 13.8 64 16.9 66.7l3.1 2.8h186l3.1-2.8c3.1-2.7 3.3-3.6 16.9-66.7 7.5-35.2 14.1-65.5 14.4-67.3l.8-3.2h6.9c8 0 11.9-1.6 13.7-5.5.9-1.8 1.2-11.9 1.2-34.6 0-34.7-.2-36.3-5.5-38.7-1.9-.9-19.6-1.2-68.7-1.2h-66.1l.5-9.3c.8-15.2 6.2-27.6 17.8-41.5 19.4-23.2 59.8-47.1 105.5-62.3 11.8-3.9 14.5-6.1 14.5-11.9 0-3.3-.6-4.8-2.9-7.1-4-4-7.3-3.8-22.7 1.5-25.4 8.7-50.8 20.8-69.6 33.1l-9.7 6.4.5-3.2c5.9-34.2 23.3-55.6 51.1-62.8 21.3-5.5 66.4-2.3 94.9 6.7l8.5 2.7-.7 3.1c-1.4 6.6-7.7 23.3-12.1 32-13.6 27.2-29.7 44.7-49.8 54.2-13.5 6.3-20.5 7.8-37 7.9-15.3 0-23.3-1.2-36.1-5.5-4.6-1.6-9.3-2.6-10.8-2.3-3.8.8-7.6 5.7-7.6 10 0 5.4 3.9 8.5 15.1 12.1 27.1 8.7 56.9 7.9 80.2-2 36.6-15.6 65.3-54.3 78.3-105.5 2.9-11.2 2.9-11.3 1-14.7-2-3.7-5.4-5.5-17.6-9.5-29.5-9.5-74.7-14.4-98.7-10.7C280 68 252 97.4 244.5 144c-.8 5.2-1.5 12.4-1.5 16.1 0 6.2-.2 6.7-3.6 10-1.9 1.8-5.4 5.8-7.6 8.7l-4.1 5.3-3.2-8.8c-3.3-9-7-17-11.1-23.4l-2.3-3.7 3.1-7.8c9.3-24 9.3-54.4-.1-77.9-12.5-31.3-39.5-52.6-76.1-60C128.9.6 99.4-.2 85.7 1zM351 280v20H91v-40h260v20zm-22.6 41.7c-.8 3.6-25.4 117.6-25.4 117.9 0 .2-36.9.4-82 .4s-82-.2-82-.4c0-.3-24.6-114.3-25.4-117.9-.4-1.6 5.2-1.7 107.4-1.7s107.8.1 107.4 1.7z"/></symbol><symbol id="icon-question" viewBox="0 0 416 353"><path d="M44 3.6C23.7 7.9 6.8 24 1.5 44c-2.2 8.2-2.2 196.8 0 205 4.7 17.8 18.2 32.5 35.8 38.9L40 289v25.5c0 28.3.2 29.2 6.3 33.9 4 3.1 8.3 4.1 13.4 3.1 3.3-.6 7.7-4.6 33.8-30.6l30-29.9 124.5-.2 124.5-.3 6.5-2.5c17.6-6.9 31-21.4 35.5-38.5 2.2-8.7 2.3-197.1 0-205.5-5.4-20.3-22.2-36.1-43-40.5C361.3 1.4 54 1.4 44 3.6zm324 16.8c16.6 3.6 28.8 17.1 31.1 34.4 1.1 8.8 1.1 174.7 0 183.4-2.1 15.9-12.3 28.6-27.6 34.2-2.1.7-40.7 1.2-129.2 1.6l-126.3.5-30 30-30 30v-28.3c0-32 .2-31.1-8.2-33.1-11.5-2.9-22.6-12-27.5-22.7-1.4-3-2.9-8.5-3.4-12.2-1.1-8.7-1.1-174.7 0-183.4 2.2-17 14.4-30.7 30.6-34.3 9.1-2 311.1-2.1 320.5-.1z"/><path d="M68.3 67c-4.7 1.9-5.9 10.1-2 13.8l2.3 2.2h279.1l2.1-2.3c2.8-2.9 2.9-8.6.3-11.8l-1.9-2.4-138.9-.2c-78.8-.1-139.7.2-141 .7zM68.3 115c-4.7 2-5.9 10.1-2 13.8 2.3 2.1 3 2.2 29.8 2.2 27.5 0 27.6 0 29.7-2.3 2.8-2.9 2.9-8.6.3-11.8l-1.9-2.4-26.9-.2c-14.7-.1-27.8.2-29 .7zM148.3 115c-4.7 1.9-5.9 10.1-2 13.8l2.3 2.2h199.1l2.1-2.3c2.8-2.9 2.9-8.6.3-11.8l-1.9-2.4-98.9-.2c-55.7-.1-99.8.2-101 .7zM68.3 163c-4.7 1.9-5.9 10.1-2 13.8l2.3 2.2h143.1l2.1-2.3c2.8-2.9 2.9-8.6.3-11.8l-1.9-2.4-70.9-.2c-39.6-.1-71.8.2-73 .7zM236.3 163c-4.7 1.9-5.9 10.1-2 13.8l2.3 2.2h111.1l2.1-2.3c2.8-2.9 2.9-8.6.3-11.8l-1.9-2.4-54.9-.2c-30.4-.1-55.8.2-57 .7zM68.3 211c-4.7 1.9-5.9 10.1-2 13.8l2.3 2.2h279.1l2.1-2.3c2.8-2.9 2.9-8.6.3-11.8l-1.9-2.4-138.9-.2c-78.8-.1-139.7.2-141 .7z"/></symbol><symbol id="icon-refund" viewBox="0 0 512 512"><path d="M275.3 24.4c-6.7 3-6.8 3.4-6.8 39.2 0 35.2.1 36.1 5.9 38.7 1.7.8 7.7 1.8 13.3 2.1 38 2.5 71.6 17.4 97.8 43.3C415.2 177 431 214.7 431 256s-15.8 79-45.5 108.3c-37.2 36.8-90.3 51.5-142 39.2-42.9-10.1-80.4-40.2-100.5-80.3-6.4-13-14-37.7-14-45.8 0-1.2 3.4-1.4 19.6-1.4 22.4 0 25.1-.7 28-6.8 1.5-3.2 1.5-4 .3-7.4-.9-2.5-14.5-18.5-40.3-47.4-21.4-23.9-40.2-44.6-41.8-45.9-3.7-3.2-8.5-3.2-12.7-.3-3.4 2.5-77.1 86.3-80.2 91.3-2.3 3.7-2.4 6.6-.3 10.6 2.6 5.1 6.1 5.9 27.2 5.9h18.9l.7 7.2c.4 4 1.9 12.9 3.2 19.8 14.4 70.8 62.3 131.9 127.9 163.1 88.5 42 193.8 24.2 263-44.6 19.6-19.5 33.7-39 45.5-62.9 10.8-22 17.8-44.5 21.7-69.6 2.4-16 2.4-50 0-66C494.5 124.6 421.3 47 326 28.1c-21.4-4.2-45.5-6-50.7-3.7zM319 49c87.7 17.7 153.7 85.8 168.5 174 2.3 13.5 3 39.1 1.6 53.3-7 68-44 125.6-103.8 161.6-34.8 21-80.4 31.6-121.1 28.3-61.2-5.1-113.8-33.1-151.3-80.7C88 354 72.7 314.3 69.1 271.9c-.5-5.8-1.5-11.6-2.2-12.7-2.6-4.1-6.8-5.2-19.8-5.2H35l26-29.8c14.3-16.3 26.5-29.8 27-30 .4-.2 12.8 13.1 27.5 29.5l26.7 29.8-15.2.5-15.2.5-3 3.4-3.1 3.4.7 10c4.5 65 50.2 124.8 112.9 147.8 19.9 7.3 38.2 10.4 60.7 10.2 25.2-.1 45.3-4.2 68-13.9 42.8-18.3 78.3-55.6 94-98.6 6.7-18.3 9.8-34.2 10.7-54.3 2-46.6-15.2-92-47.6-125.7-29.3-30.6-64.1-48.3-104.6-53.1l-10-1.2-.3-18.4-.2-18.4 9.2.6c5.1.4 14 1.6 19.8 2.7z"/><path d="M272.5 118.3c-5.1 2.3-6 4.2-6.5 14.5l-.5 9.5-6.5 2.2c-9.3 3.1-14.7 5.9-21.2 11-18.2 14.3-27.2 39-22.3 61.1 2.9 13.2 7.6 21.6 17.4 31.5 9 9 15.8 13 27.5 16.4l5.6 1.6-.2 41.2-.3 41.2-15.7.5c-14.1.4-16 .7-17.8 2.5-4.6 4.7-4.2 12.8.9 16.4 2.5 1.8 4.6 2.1 17.7 2.3l14.9.3.5 9.2c.6 10.3 1.8 12.6 8 14.4 2.9.9 4.3.8 6.5-.2 5.3-2.6 6.8-6 7.3-15.8l.4-8.9 4.7-1.2c12.5-3.1 25.9-12.4 34.3-23.7 13.4-18.2 15.6-44.2 5.3-64.3-9-17.7-21.3-27.3-43.2-33.6-1-.3-1.3-9.5-1.3-41.9V163h26.8l3.1-3.1c2.5-2.5 3.1-3.9 3.1-7.4 0-3.5-.6-4.9-3.1-7.4l-3.1-3.1H288v-6.3c0-3.4-.5-7.8-1-9.8-1.9-6.8-8.5-10.3-14.5-7.6zm-6.5 85.8v39.1l-2.7-.7c-4.2-1-11.1-5.3-15.3-9.5-16.7-16.7-15.8-43.3 2-59.4 3.7-3.3 13-8.6 15.3-8.6.4 0 .7 17.6.7 39.1zm29.5 67.7c8.8 4.3 15.7 12.5 19.5 22.9 1.9 5.2 2.2 7.7 1.8 15.1-.3 7.5-.9 10-3.6 15.3-4.8 9.8-12.8 17.1-22.7 20.9l-2.5 1v-78.1l2.3.7c1.2.3 3.6 1.3 5.2 2.2z"/></symbol><symbol id="icon-search"><path fill-rule="evenodd" clip-rule="evenodd" d="M6.167 12.561C2.76 12.561 0 9.75 0 6.281 0 2.812 2.76 0 6.167 0c3.405 0 6.166 2.812 6.166 6.28 0 1.49-.509 2.859-1.36 3.936l4.832 4.92c.26.266.26.696 0 .96a.658.658 0 01-.943 0l-4.832-4.92a6.072 6.072 0 01-3.863 1.385zm0-1.358C8.836 11.203 11 8.999 11 6.28S8.836 1.357 6.167 1.357c-2.67 0-4.834 2.204-4.834 4.923s2.164 4.923 4.834 4.923z" fill="#ffa38c"/></symbol><symbol id="icon-sofa" viewBox="0 0 512 197"><path d="M71.9 4.3C67.7 7.1 65 12.2 65 17.6v4.1l-5.4 1.1c-2.9.6-17.5 5.9-32.5 11.8L0 45.3v114.2l2.9 6C9.4 179.1 19.7 184 41.8 184H51v10h9v-10h392v10h9v-10h9.3c22 0 32.3-4.9 38.8-18.5l2.9-6V45.3l-27.1-10.7c-15-5.9-29.6-11.2-32.5-11.8l-5.4-1.1v-4.1c0-5.4-2.7-10.5-6.9-13.3L436.7 2h-87.4c-80.9 0-87.7.1-90.4 1.7-2.7 1.6-3.1 1.6-5.8 0-2.7-1.6-9.5-1.7-90.4-1.7H75.3l-3.4 2.3zm177.8 8c1.6 1.6 1.8 4.6 2.1 34.2l.3 32.5H135.5v-4.8c0-4.1-1.4-7.1-11.9-25.7-15-26.6-16-28.2-19.9-30.5-4-2.5-7.1-2.5-19.2 0-5.3 1.1-9.9 2-10.1 2-.7 0-.4-5.5.4-6.6 2.2-3.3 4.3-3.4 88.9-3.1 79.3.2 84.3.3 86 2zm184.6-1.2c1.2.7 2.5 1.7 2.9 2.3.8 1.1 1.1 6.6.4 6.6-.2 0-4.8-.9-10.1-2-12.1-2.5-15.2-2.5-19.2 0-3.9 2.3-4.9 3.9-19.9 30.5-10.5 18.6-11.9 21.6-11.9 25.7V79H260V48.1c0-17.9.4-32.1 1-33.6.5-1.4 2-3 3.2-3.5 3.6-1.4 167.4-1.3 170.1.1zM100.7 27.2c3 3.5 26.3 45.5 26.3 47.6 0 4.3-2.6 5-26.3 7.2-18.5 1.7-23.2 1.9-24.4.9C74.5 81.4 53 38.7 53 36.6c0-2.8 3.8-4.2 21.4-7.8 21.9-4.4 23.6-4.5 26.3-1.6zM436 28.6c18.4 3.5 23 5.1 23 7.9 0 2.1-21.5 44.8-23.3 46.4-1.2 1-5.9.8-24.4-.9-23.7-2.2-26.3-2.9-26.3-7.2 0-2.1 23.3-44.1 26.3-47.6 1.1-1.2 3-2.2 4.1-2.2 1.1 0 10.4 1.6 20.6 3.6zM44.5 40.1c1 3.1-.9 3.9-9 3.8h-7l7-2.9c8.6-3.5 8.2-3.4 9-.9zm431.5.8l7.5 3h-7c-8.1.1-10-.7-9-3.8.3-1.1.7-2.1.8-2.1.1 0 3.6 1.3 7.7 2.9zM57 66c4.1 8.2 7.2 15.1 7 15.3C62.5 82.6 48 92 47.5 92c-.3 0-.5-9.2-.5-20.5 0-16 .3-20.5 1.3-20.5.7 0 4.6 6.7 8.7 15zm408 5.5c0 11.3-.2 20.5-.5 20.5-.5 0-15-9.4-16.5-10.7-.8-.7 14.5-30.3 15.7-30.3 1 0 1.3 4.5 1.3 20.5zM39 114v61h-4.6c-8.5 0-13.5-1.9-19-7.4-3.7-3.8-5.4-6.4-6.2-9.8-.8-3.3-1.2-19.6-1.2-54.7V53h31v61zm465-10.9c0 35.1-.4 51.4-1.2 54.7-.8 3.4-2.5 6-6.2 9.8-5.5 5.5-10.5 7.4-19 7.4H473V53h31v50.1zm-95-12.8c24.8 2.6 27.6 2.6 31.8 0 2.1-1.3 2.7-1.2 7.5 1.9l5.2 3.3-98.8.3c-54.3.1-143.1.1-197.4 0l-98.8-.3 5.3-3.4c4.1-2.6 5.5-3.1 6.6-2.2 3.4 2.8 7.9 3 29.9 1 12.2-1.1 23.6-2.3 25.2-2.8 1.7-.5 59.5-.8 131-.7l128 .3 24.5 2.6zm56 29.2V134H47v-29h418v14.5zm0 39.5v16H47v-32h418v16z"/></symbol><symbol id="icon-table" viewBox="0 0 512 433"><path d="M219.5 5.6c-28.2 2-37.2 2.8-51 4.5-61.5 7.5-111.3 22.7-141.3 43C16.5 60.3 8.7 68.4 3.9 77.3L.5 83.5v52l2.8 5.8c13.8 27.9 65.5 52 138 64.2 25.8 4.3 65.6 8.4 82.5 8.5h5.2v137l-2.2.4c-1.3.3-5 .8-8.3 1.1-18 1.9-40.4 7.9-52.8 14.2-16.1 8.1-23 20.1-18.2 31.6 10.8 25.9 89.9 40.2 157.8 28.6 44.9-7.7 67.7-24.9 58.8-44.4-6.2-13.5-32.7-25.1-67.6-29.5-4.9-.6-10-1.3-11.2-1.6l-2.3-.4V214h5.3c8.3-.1 41.4-2.7 55.4-4.5 51.4-6.6 90.2-16.8 122-32.2 21.1-10.2 36.7-23.3 43-36l2.8-5.8v-52l-3.4-6.2c-4.8-8.9-12.6-17-23.3-24.2C450.8 30 394.2 14.5 319 7.4c-15.4-1.4-86.4-2.7-99.5-1.8zM306 18c87.2 6.2 159.1 27.6 184.3 54.9 8 8.7 10.1 13.1 10.1 21.1 0 7-2.1 12.3-7.5 19-3.7 4.4-3.8 8.4-.3 10.7 2.5 1.6 2.8 1.6 5.7 0l3-1.8-.5 4.9c-2 21.1-33.3 42.1-84.3 56.6-29.7 8.4-62.1 14-104.5 17.8-19.5 1.7-92.5 1.7-112 0-87.9-7.9-151.4-27.3-177.9-54.1-6.9-7.1-10.2-13.4-10.9-20.5l-.4-5.1 4.3 4.1c17.6 16.6 46.4 29.9 87.4 40.4 25.8 6.6 53.8 11.3 87.5 14.6 22.5 2.2 85.6 3 109.9 1.5 68.8-4.4 128-17.2 165.9-35.9 10.3-5 12-6.9 10.2-11.2-1.8-4.4-5-4.3-14.8.5-88.7 43-270.2 48.7-380.9 11.9-33.1-11-57.5-26.4-65.9-41.6-3.7-6.9-4-16.1-.6-22.5 3.3-6.4 12.9-16.1 21.2-21.6 38.3-25.2 111.4-41.8 197.5-45.1 13.7-.5 58.3.4 73.5 1.4zm-35 278.5c0 80.2 0 81.5 2 83.5 2.4 2.4 4.9 2.5 7.5.6 1.6-1.2 2-2.9 2.3-9.6l.4-8.2 6.2.7c18.3 2 42.1 8.4 52.7 14.2 5.4 2.9 11.5 8.6 12.5 11.5.6 2.1-1.6 6.6-4.8 9.4-6.2 5.6-23.8 12.5-39.8 15.8-32.6 6.6-75.4 6.6-108 0-16-3.3-33.6-10.2-39.8-15.8-3.2-2.8-5.4-7.3-4.8-9.4 1-2.9 7.1-8.6 12.5-11.5 10.7-5.9 34.4-12.2 52.9-14.2l6.2-.7v6.6c0 8.7 1.8 13 6.7 15.4 4.4 2.3 18.3 4.7 21.9 3.8 3-.8 4.6-3.8 3.8-7.2-.7-2.9-3.8-4.4-9.1-4.4-2 0-5.3-.5-7.4-1.2l-3.9-1.1V215h30v81.5z"/></symbol><symbol id="icon-user"><path d="M21.656 18.096c-3.51-.794-6.776-1.49-5.194-4.418C21.278 4.766 17.738 0 12.654 0 7.468 0 4.017 4.949 8.845 13.678c1.63 2.945-1.76 3.641-5.193 4.418C.516 18.806.398 20.332.409 23l.004 1h24.48l.003-.969c.013-2.688-.093-4.222-3.24-4.935z" fill="#272424"/></symbol><symbol id="icon-vk" viewBox="0 0 30 30">
<path d="M24.8938 16.285C24.4088 15.6725 24.5475 15.4 24.8938 14.8525C24.9 14.8462 28.9037 9.31375 29.3162 7.4375L29.3188 7.43625C29.5238 6.7525 29.3188 6.25 28.3275 6.25H25.0475C24.2125 6.25 23.8275 6.68125 23.6213 7.16375C23.6213 7.16375 21.9513 11.1613 19.5887 13.7525C18.8263 14.5012 18.4738 14.7413 18.0575 14.7413C17.8525 14.7413 17.5338 14.5013 17.5338 13.8175V7.43625C17.5338 6.61625 17.3 6.25 16.6087 6.25H11.4513C10.9275 6.25 10.6163 6.6325 10.6163 6.98875C10.6163 7.76625 11.7975 7.945 11.92 10.1325V14.8787C11.92 15.9187 11.7312 16.11 11.3125 16.11C10.1975 16.11 7.49125 12.0962 5.8875 7.5025C5.56375 6.61125 5.2475 6.25125 4.40625 6.25125H1.125C0.18875 6.25125 0 6.6825 0 7.165C0 8.0175 1.115 12.2562 5.185 17.8562C7.8975 21.6788 11.7175 23.75 15.1925 23.75C17.2812 23.75 17.5363 23.29 17.5363 22.4988C17.5363 18.8463 17.3475 18.5012 18.3937 18.5012C18.8787 18.5012 19.7137 18.7413 21.6637 20.585C23.8925 22.7712 24.2588 23.75 25.5063 23.75H28.7862C29.7212 23.75 30.195 23.29 29.9225 22.3825C29.2987 20.4738 25.0838 16.5475 24.8938 16.285Z" fill="#ffffff"/>
</symbol><symbol id="icon-youtube" viewBox="0 0 30 30">
<path d="M13.1316 17.8102L18.0109 15L13.1316 12.1898V17.8102Z" fill="#ffffff"/>
<path d="M15 0C6.717 0 0 6.717 0 15C0 23.283 6.717 30 15 30C23.283 30 30 23.283 30 15C30 6.717 23.283 0 15 0ZM24.3727 15.0153C24.3727 15.0153 24.3727 18.0574 23.9868 19.5243C23.7705 20.3272 23.1374 20.9603 22.3345 21.1764C20.8676 21.5625 15 21.5625 15 21.5625C15 21.5625 9.14772 21.5625 7.66548 21.161C6.86256 20.945 6.22948 20.3117 6.01318 19.5087C5.62706 18.0574 5.62706 15 5.62706 15C5.62706 15 5.62706 11.9582 6.01318 10.4913C6.22925 9.68834 6.8779 9.03969 7.66548 8.82362C9.13239 8.4375 15 8.4375 15 8.4375C15 8.4375 20.8676 8.4375 22.3345 8.83896C23.1374 9.05502 23.7705 9.68834 23.9868 10.4913C24.3883 11.9582 24.3727 15.0153 24.3727 15.0153Z" fill="#ffffff"/>
</symbol></svg>